<?xml version="1.0" encoding="UTF-8" standalone="no"?>
<!-- Created with Inkscape (http://www.inkscape.org/) -->

<svg
   width="200"
   height="200"
   viewBox="0 0 52.916668 52.916666"
   version="1.1"
   id="svg8"
   inkscape:version="1.3.2 (091e20e, 2023-11-25, custom)"
   sodipodi:docname="anarchy.svg"
   xml:space="preserve"
   xmlns:inkscape="http://www.inkscape.org/namespaces/inkscape"
   xmlns:sodipodi="http://sodipodi.sourceforge.net/DTD/sodipodi-0.dtd"
   xmlns="http://www.w3.org/2000/svg"
   xmlns:svg="http://www.w3.org/2000/svg"
   xmlns:rdf="http://www.w3.org/1999/02/22-rdf-syntax-ns#"
   xmlns:cc="http://creativecommons.org/ns#"
   xmlns:dc="http://purl.org/dc/elements/1.1/"><defs
     id="defs2"><inkscape:path-effect
       effect="envelope"
       id="path-effect4658"
       is_visible="true"
       yy="true"
       xx="true"
       bendpath1="m -199.08406,108.42369 h 7.0057"
       bendpath2="m -192.07836,108.42369 v 6.75242"
       bendpath3="m -199.08406,115.17611 h 7.0057"
       bendpath4="m -199.08406,108.42369 v 6.75242" /><inkscape:path-effect
       effect="bend_path"
       id="path-effect4656"
       is_visible="true"
       bendpath="m -192.00142,114.60623 c 2.12577,-0.53066 4.48261,0.85111 7.0057,0"
       prop_scale="1"
       scale_y_rel="false"
       vertical="false"
       bendpath-nodetypes="cc" /><inkscape:path-effect
       effect="bounding_box"
       id="path-effect4654"
       is_visible="true"
       linkedpath=""
       visualbounds="false" /></defs><sodipodi:namedview
     id="base"
     pagecolor="#ffffff"
     bordercolor="#666666"
     borderopacity="1.0"
     inkscape:pageopacity="0.0"
     inkscape:pageshadow="2"
     inkscape:zoom="1.7469907"
     inkscape:cx="93.303299"
     inkscape:cy="92.44468"
     inkscape:document-units="mm"
     inkscape:current-layer="layer1"
     showgrid="false"
     fit-margin-top="0"
     fit-margin-left="0"
     fit-margin-right="0"
     fit-margin-bottom="0"
     inkscape:window-width="1366"
     inkscape:window-height="705"
     inkscape:window-x="-8"
     inkscape:window-y="-8"
     inkscape:window-maximized="1"
     showguides="false"
     inkscape:object-nodes="true"
     units="px"
     inkscape:snap-page="true"
     inkscape:showpageshadow="2"
     inkscape:pagecheckerboard="0"
     inkscape:deskcolor="#d1d1d1" /><metadata
     id="metadata5"><rdf:RDF><cc:Work
         rdf:about=""><dc:format>image/svg+xml</dc:format><dc:type
           rdf:resource="http://purl.org/dc/dcmitype/StillImage" /></cc:Work></rdf:RDF></metadata><g
     inkscape:label="Layer 1"
     inkscape:groupmode="layer"
     id="layer1"
     transform="translate(249.80447,-91.409467)"><g
       style="stroke-width:0.5"
       id="g5334"
       transform="matrix(2,0,0,2,-249.80447,91.409467)"><rect
         ry="1.984375"
         rx="1.984375"
         style="opacity:1;fill:#212121;fill-opacity:1;fill-rule:nonzero;stroke:none;stroke-width:0.25;stroke-linecap:butt;stroke-linejoin:round;stroke-miterlimit:4;stroke-dasharray:none;stroke-dashoffset:0;stroke-opacity:0.90944878;paint-order:normal"
         id="rect5322"
         width="26.458334"
         height="26.458334"
         x="0"
         y="-1.110223e-16" /><rect
         ry="1.3229166"
         rx="1.3229166"
         y="1.322917"
         x="1.322917"
         height="23.8125"
         width="23.8125"
         id="rect5324"
         style="opacity:1;fill:#ffeb3b;fill-opacity:1;fill-rule:nonzero;stroke:none;stroke-width:0.25;stroke-linecap:butt;stroke-linejoin:round;stroke-miterlimit:4;stroke-dasharray:none;stroke-dashoffset:0;stroke-opacity:0.90944878;paint-order:normal"
         inkscape:label="inside" /><path
         inkscape:connector-curvature="0"
         id="path5326"
         d="m 0.72760467,18.520836 v 4.167188 c 0,1.539081 1.23904383,2.778124 2.77812503,2.778124 H 22.952604 c 1.539081,0 2.778125,-1.239043 2.778125,-2.778124 v -4.167188 z"
         style="opacity:1;fill:#222222;fill-opacity:1;fill-rule:nonzero;stroke:none;stroke-width:0.24999999;stroke-linecap:butt;stroke-linejoin:round;stroke-miterlimit:4;stroke-dasharray:none;stroke-dashoffset:0;stroke-opacity:0.90944878;paint-order:normal" /></g><text
       xml:space="preserve"
       style="font-style:normal;font-variant:normal;font-weight:500;font-stretch:normal;font-size:7.69804px;font-family:Montserrat;-inkscape-font-specification:'Montserrat Medium';fill:#faa20a;fill-opacity:1;stroke-width:0.240563"
       x="-243.28271"
       y="138.56883"
       id="text1"><tspan
         sodipodi:role="line"
         id="tspan1"
         style="font-style:normal;font-variant:normal;font-weight:600;font-stretch:normal;font-size:7.69804px;font-family:Montserrat;-inkscape-font-specification:'Montserrat Semi-Bold';fill:#f9f9f9;stroke-width:0.240563"
         x="-243.28271"
         y="138.56883">ANARCHY</tspan></text><path
       style="fill:#212121;stroke-width:0.257364;fill-opacity:1"
       d="m -236.68695,130.29171 c -0.75113,-0.49753 -1.52902,-1.67415 -1.69933,-2.57037 l -0.0771,-0.40543 -0.32012,-0.0425 c -0.81879,-0.10861 -1.86703,-0.91675 -2.32869,-1.7953 -0.37787,-0.71909 -0.59409,-1.54876 -0.54922,-2.1075 0.11319,-1.40973 0.57949,-2.61979 1.4754,-3.8287 l 0.42707,-0.57629 -0.4675,-1.2963 c -0.81503,-2.25996 -1.84385,-6.6988 -2.16852,-9.35609 -0.0636,-0.52072 -0.11366,-0.7146 -0.19098,-0.73988 -0.74474,-0.2435 -1.38071,-0.70917 -1.69147,-1.23852 -0.15477,-0.26365 -0.18326,-0.39142 -0.18349,-0.82283 -1.4e-4,-0.28088 0.0233,-0.59496 0.0521,-0.69796 l 0.0524,-0.18726 h -0.44838 c -0.24661,0 -0.51024,-0.0331 -0.58586,-0.0736 -0.21698,-0.11611 -0.33023,-0.48366 -0.33023,-1.07167 0,-0.94342 0.18393,-1.16995 0.94993,-1.16995 0.22658,0 0.41196,-0.0173 0.41196,-0.0386 0,-0.0212 -0.0754,-0.13743 -0.16753,-0.25823 -0.0921,-0.1208 -0.2523,-0.4022 -0.35592,-0.62533 -0.16125,-0.34725 -0.18861,-0.49414 -0.18996,-1.01974 -0.002,-0.557622 0.0187,-0.654602 0.21882,-1.055454 0.12122,-0.242775 0.43956,-0.701869 0.70741,-1.02021 0.26783,-0.318339 0.63952,-0.793296 0.82596,-1.055458 0.33859,-0.476105 0.79975,-1.348652 0.79975,-1.513173 0,-0.18055 0.17985,-0.07358 0.56192,0.334212 0.78746,0.840488 1.02369,1.624551 0.73888,2.452383 -0.0719,0.208954 -0.10534,0.414064 -0.0754,0.462489 0.16389,0.265189 0.76816,-0.303199 0.85864,-0.807657 0.076,-0.423571 0.12716,-0.457691 0.29041,-0.193544 0.37915,0.613473 0.59568,1.658276 0.49316,2.379592 -0.0782,0.5505 -0.25829,0.93038 -0.6992,1.4753 -0.18142,0.22423 -0.32986,0.42472 -0.32986,0.44554 0,0.0208 0.27434,0.0379 0.60964,0.0379 0.93221,0 1.0905,0.12355 1.14565,0.89422 0.0456,0.63762 -0.0309,1.06461 -0.22553,1.25929 -0.14161,0.14161 -0.22547,0.16168 -0.67549,0.16168 -0.28259,0 -0.5137,0.008 -0.51358,0.017 1.1e-4,0.009 0.10582,0.607 0.23488,1.32807 0.23371,1.30565 0.23732,1.31717 0.8761,2.79187 0.35278,0.81444 0.9862,2.21979 1.40762,3.123 l 0.76621,1.64219 0.2471,-0.0542 c 0.1359,-0.0298 0.92123,-0.14904 1.74517,-0.26495 0.82394,-0.11591 1.59766,-0.2267 1.71937,-0.24621 0.22034,-0.0353 0.22131,-0.0371 0.22131,-0.43277 v -0.39729 l -0.39155,-0.29384 c -0.63307,-0.4751 -2.34182,-1.86166 -2.65567,-2.15493 -0.2925,-0.27333 -0.36435,-0.42755 -0.19919,-0.42755 0.16704,0 1.02496,0.31746 2.38316,0.88185 0.7424,0.30849 1.35769,0.55037 1.3673,0.53749 0.01,-0.0128 0.1469,-0.16648 0.30507,-0.34136 l 0.28759,-0.31794 -0.57473,-1.45251 c -1.19883,-3.02974 -1.12405,-3.08218 0.85754,-0.60132 0.5235,0.65541 0.97553,1.21746 1.0045,1.249 0.0506,0.0551 1.08878,-0.14006 1.08878,-0.20464 0,-0.13413 0.44007,-3.01616 0.51665,-3.38359 0.22895,-1.09842 0.32591,-0.8739 0.71054,1.64525 0.11152,0.73048 0.20325,1.39229 0.20383,1.4707 0.002,0.24202 0.0919,0.30794 0.59546,0.43584 l 0.48667,0.12359 0.91521,-1.16175 c 1.14613,-1.4549 1.64299,-2.00207 1.73509,-1.9108 0.0974,0.0965 -0.14813,0.82574 -0.82424,2.4483 -0.51168,1.22798 -0.55605,1.36909 -0.46095,1.46583 0.0579,0.0589 0.18628,0.20432 0.28531,0.32322 l 0.18008,0.2162 1.4316,-0.57344 c 1.49048,-0.59701 2.42857,-0.90818 2.50563,-0.83112 0.12979,0.1298 -0.56978,0.76482 -2.40299,2.18128 l -0.97513,0.75344 v 0.36178 c 0,0.19899 0.0237,0.36179 0.0527,0.36179 0.14134,0 3.77273,0.54594 4.08342,0.6139 0.3722,0.0814 0.50389,0.18122 0.35804,0.27136 -0.17316,0.10701 -3.00314,0.56298 -4.46869,0.71998 l -0.41716,0.0447 -0.0843,0.28156 c -0.37671,1.25815 -1.58971,2.78756 -2.62959,3.31554 -0.41981,0.21314 -0.51521,0.23453 -1.04546,0.23453 -0.52511,0 -0.63028,-0.023 -1.05102,-0.22994 -1.08181,-0.53209 -2.18695,-1.95149 -2.71488,-3.48688 -0.0279,-0.081 -0.2123,-0.12887 -0.74153,-0.19236 -0.38745,-0.0465 -1.29872,-0.17486 -2.02504,-0.28527 -0.72632,-0.11042 -1.32855,-0.19239 -1.3383,-0.18216 -0.01,0.0102 0.21993,0.50888 0.51038,1.1081 l 0.52808,1.0895 1.53827,1.14257 c 1.61673,1.20084 2.32952,1.62891 3.19241,1.91723 1.15124,0.38467 1.22334,0.39145 4.68652,0.44031 2.6896,0.038 3.28219,0.0636 3.51769,0.15228 1.11545,0.42002 2.06288,1.5033 2.7472,3.14109 0.27767,0.66451 0.64296,1.85585 0.72122,2.3521 l 0.0463,0.29335 0.42354,-0.80405 c 0.35145,-0.6672 0.46491,-0.82488 0.66663,-0.92645 0.17345,-0.0873 0.29898,-0.10684 0.43814,-0.0681 0.29019,0.0808 4.25038,2.12744 4.42828,2.28854 0.287,0.25992 0.21984,0.45378 -0.85118,2.45687 l -1.00439,1.8785 -10.59398,7.1e-4 -10.59398,7.1e-4 z"
       id="path2" /></g></svg>
