<?xml version="1.0" encoding="UTF-8" standalone="no"?>
<!-- Created with Inkscape (http://www.inkscape.org/) -->

<svg
   width="200"
   height="200"
   viewBox="0 0 52.916668 52.916666"
   version="1.1"
   id="svg8"
   inkscape:version="1.3.2 (091e20e, 2023-11-25, custom)"
   sodipodi:docname="atheist.svg"
   xml:space="preserve"
   xmlns:inkscape="http://www.inkscape.org/namespaces/inkscape"
   xmlns:sodipodi="http://sodipodi.sourceforge.net/DTD/sodipodi-0.dtd"
   xmlns="http://www.w3.org/2000/svg"
   xmlns:svg="http://www.w3.org/2000/svg"
   xmlns:rdf="http://www.w3.org/1999/02/22-rdf-syntax-ns#"
   xmlns:cc="http://creativecommons.org/ns#"
   xmlns:dc="http://purl.org/dc/elements/1.1/"><defs
     id="defs2"><inkscape:path-effect
       effect="envelope"
       id="path-effect4658"
       is_visible="true"
       yy="true"
       xx="true"
       bendpath1="m -199.08406,108.42369 h 7.0057"
       bendpath2="m -192.07836,108.42369 v 6.75242"
       bendpath3="m -199.08406,115.17611 h 7.0057"
       bendpath4="m -199.08406,108.42369 v 6.75242" /><inkscape:path-effect
       effect="bend_path"
       id="path-effect4656"
       is_visible="true"
       bendpath="m -192.00142,114.60623 c 2.12577,-0.53066 4.48261,0.85111 7.0057,0"
       prop_scale="1"
       scale_y_rel="false"
       vertical="false"
       bendpath-nodetypes="cc" /><inkscape:path-effect
       effect="bounding_box"
       id="path-effect4654"
       is_visible="true"
       linkedpath=""
       visualbounds="false" /></defs><sodipodi:namedview
     id="base"
     pagecolor="#ffffff"
     bordercolor="#666666"
     borderopacity="1.0"
     inkscape:pageopacity="0.0"
     inkscape:pageshadow="2"
     inkscape:zoom="1.7491126"
     inkscape:cx="87.472929"
     inkscape:cy="58.601145"
     inkscape:document-units="mm"
     inkscape:current-layer="g5334"
     showgrid="false"
     fit-margin-top="0"
     fit-margin-left="0"
     fit-margin-right="0"
     fit-margin-bottom="0"
     inkscape:window-width="1366"
     inkscape:window-height="705"
     inkscape:window-x="-8"
     inkscape:window-y="-8"
     inkscape:window-maximized="1"
     showguides="false"
     inkscape:object-nodes="true"
     units="px"
     inkscape:snap-page="true"
     inkscape:showpageshadow="2"
     inkscape:pagecheckerboard="0"
     inkscape:deskcolor="#d1d1d1" /><metadata
     id="metadata5"><rdf:RDF><cc:Work
         rdf:about=""><dc:format>image/svg+xml</dc:format><dc:type
           rdf:resource="http://purl.org/dc/dcmitype/StillImage" /></cc:Work></rdf:RDF></metadata><g
     inkscape:label="Layer 1"
     inkscape:groupmode="layer"
     id="layer1"
     transform="translate(249.80447,-91.409467)"><g
       style="stroke-width:0.5"
       id="g5334"
       transform="matrix(2,0,0,2,-249.80447,91.409467)"><rect
         ry="1.984375"
         rx="1.984375"
         style="opacity:1;fill:#212121;fill-opacity:1;fill-rule:nonzero;stroke:none;stroke-width:0.25;stroke-linecap:butt;stroke-linejoin:round;stroke-miterlimit:4;stroke-dasharray:none;stroke-dashoffset:0;stroke-opacity:0.90944878;paint-order:normal"
         id="rect5322"
         width="26.458334"
         height="26.458334"
         x="0"
         y="-1.110223e-16" /><rect
         ry="1.3229166"
         rx="1.3229166"
         y="1.322917"
         x="1.322917"
         height="23.8125"
         width="23.8125"
         id="rect5324"
         style="opacity:1;fill:#d3d4c9;fill-opacity:1;fill-rule:nonzero;stroke:none;stroke-width:0.25;stroke-linecap:butt;stroke-linejoin:round;stroke-miterlimit:4;stroke-dasharray:none;stroke-dashoffset:0;stroke-opacity:0.90944878;paint-order:normal"
         inkscape:label="inside" /><path
         inkscape:connector-curvature="0"
         id="path5326"
         d="m 0.72760467,18.520836 v 4.167188 c 0,1.539081 1.23904383,2.778124 2.77812503,2.778124 H 22.952604 c 1.539081,0 2.778125,-1.239043 2.778125,-2.778124 v -4.167188 z"
         style="opacity:1;fill:#222222;fill-opacity:1;fill-rule:nonzero;stroke:none;stroke-width:0.24999999;stroke-linecap:butt;stroke-linejoin:round;stroke-miterlimit:4;stroke-dasharray:none;stroke-dashoffset:0;stroke-opacity:0.90944878;paint-order:normal" /><path
         style="fill:#212121;stroke-width:0.152315;fill-opacity:1"
         d="m 13.33702,17.991321 c -0.875235,-0.180039 -1.662613,-1.370137 -2.145687,-3.243139 -0.05145,-0.199485 -0.0964,-0.367143 -0.0999,-0.372574 -0.0035,-0.0054 -0.249753,0.05261 -0.547244,0.128977 -0.8887814,0.228156 -1.2400134,0.278589 -1.9513964,0.280201 -0.501621,0.0011 -0.702967,-0.0147 -0.906751,-0.07132 -0.518991,-0.144204 -0.89743,-0.431356 -1.074152,-0.815042 -0.386884,-0.83998 0.12226,-2.022797 1.4654,-3.404339 l 0.492129,-0.5062013 -0.364145,-0.360254 c -0.905976,-0.8962975 -1.4654,-1.7363672 -1.654645,-2.4847324 -0.230861,-0.9129286 0.190871,-1.6078778 1.135416,-1.8709921 0.20501,-0.057108 0.402112,-0.072448 0.906751,-0.070569 0.712347,0.00265 1.07469,0.054575 1.9513964,0.2796306 0.297491,0.076368 0.544322,0.1344076 0.548511,0.1289771 0.0042,-0.00543 0.04005,-0.1458863 0.07968,-0.312124 0.10244,-0.4296297 0.401929,-1.2925811 0.582637,-1.6788157 0.442195,-0.9451235 1.005798,-1.5078686 1.623403,-1.6209309 1.096092,-0.2006576 2.073698,0.9939578 2.650859,3.2392966 0.05128,0.1994852 0.09609,0.3671436 0.09958,0.372574 0.0035,0.00543 0.249753,-0.052609 0.547245,-0.1289771 0.860565,-0.2209126 1.240701,-0.2760608 1.931245,-0.2801752 0.68672,-0.00409 0.914276,0.03438 1.314695,0.2222684 0.647641,0.3038918 0.928557,0.9197145 0.761686,1.6697662 -0.09,0.4045381 -0.421065,1.0559926 -0.776703,1.5283641 -0.149614,0.1987241 -0.492267,0.5886271 -0.761449,0.8664514 l -0.489422,0.505134 0.477135,0.4904523 c 1.334412,1.371655 1.858786,2.586188 1.474505,3.415192 -0.429056,0.925596 -1.780086,1.147106 -3.838934,0.629418 -0.349728,-0.08794 -0.638228,-0.155942 -0.641111,-0.151121 -0.0029,0.0048 -0.0472,0.17198 -0.09847,0.371465 -0.204837,0.796881 -0.529416,1.625412 -0.831697,2.123022 -0.514819,0.847482 -1.19507,1.257013 -1.86057,1.120117 z m 0.546764,-0.841871 c 0.498685,-0.257432 1.026635,-1.236192 1.378682,-2.555925 0.06999,-0.262381 0.121291,-0.481256 0.113999,-0.486388 -0.0073,-0.0051 -0.212745,-0.08739 -0.456561,-0.182786 -0.243815,-0.0954 -0.637191,-0.26164 -0.874169,-0.369421 l -0.43087,-0.195966 -0.435582,0.195816 c -0.23957,0.107698 -0.635067,0.273937 -0.878882,0.36942 -0.243815,0.09548 -0.449267,0.177805 -0.45656,0.182937 -0.0073,0.0051 0.04401,0.224007 0.113999,0.486388 0.417357,1.564564 1.079047,2.623742 1.643843,2.63133 0.07292,9.74e-4 0.199865,-0.03295 0.282101,-0.07541 z M 9.6697696,13.90478 c 0.3691954,-0.06954 1.1926344,-0.28437 1.2288664,-0.320602 0.01271,-0.01271 -0.01494,-0.309126 -0.06145,-0.658703 -0.04651,-0.349578 -0.09653,-0.775295 -0.111156,-0.946039 l -0.0266,-0.310443 -0.30304,-0.209491 c -0.166672,-0.115221 -0.5083284,-0.369958 -0.7592364,-0.566083 -0.250908,-0.196126 -0.473483,-0.356592 -0.494611,-0.356592 -0.06129,0 -0.878514,0.876464 -1.13708,1.219511 -0.52778,0.700222 -0.740844,1.174397 -0.714498,1.590116 0.01895,0.299032 0.0981,0.403198 0.409118,0.53844 0.363137,0.157905 1.192486,0.166279 1.969685,0.01989 z m 9.5937964,0.05485 c 0.273202,-0.0529 0.50272,-0.180836 0.594525,-0.331403 0.230812,-0.378547 -0.04095,-1.116789 -0.730568,-1.984604 -0.275648,-0.346874 -0.997202,-1.106799 -1.050913,-1.106799 -0.02049,0 -0.243856,0.161485 -0.496357,0.358855 -0.252501,0.197371 -0.594262,0.453231 -0.75947,0.568579 l -0.300378,0.209724 -0.02636,0.307947 c -0.0145,0.169371 -0.0646,0.595298 -0.111328,0.946505 -0.07235,0.543725 -0.07656,0.643767 -0.02834,0.673634 0.03115,0.01929 0.319586,0.09833 0.640979,0.175652 1.022647,0.246018 1.669268,0.297876 2.268209,0.18191 z m -7.063915,-0.835024 c 0.254898,-0.104461 0.459766,-0.204984 0.455264,-0.223384 -0.0045,-0.0184 -0.249326,-0.17471 -0.544051,-0.347355 -0.384795,-0.225406 -0.539676,-0.297626 -0.549384,-0.256175 -0.02615,0.111651 0.106854,1.020789 0.14898,1.018339 0.01416,-8.23e-4 0.234293,-0.08697 0.489191,-0.191425 z m 3.359105,0.06195 c 0.05161,-0.291717 0.112743,-0.834753 0.10007,-0.888861 -0.0097,-0.04149 -0.160898,0.02861 -0.537677,0.24933 -0.288286,0.16888 -0.533109,0.32519 -0.544051,0.347355 -0.01582,0.03205 0.833239,0.415868 0.932747,0.421654 0.01416,8.22e-4 0.03617,-0.05744 0.04891,-0.129478 z m -1.666924,-0.856165 c 0.356907,-0.179735 1.22372,-0.67772 1.602348,-0.92055 l 0.292176,-0.187385 V 9.9927757 8.763096 L 15.49418,8.5757116 C 15.115122,8.3326056 14.248601,7.8348269 13.890826,7.6546545 l -0.280673,-0.141345 -0.280674,0.141345 c -0.357996,0.1802837 -1.224373,0.6780009 -1.603936,0.9214303 l -0.292758,0.1877576 0.01066,1.2379776 0.01066,1.237978 0.483601,0.300968 c 0.390496,0.243024 1.618996,0.930181 1.663383,0.930407 0.0061,3.1e-5 0.136932,-0.06332 0.290749,-0.140782 z M 10.648099,9.9927757 c 0,-0.365723 -0.0095,-0.664951 -0.02101,-0.664951 -0.04635,0 -0.8217434,0.627443 -0.8217434,0.664951 0,0.03751 0.7753914,0.6649513 0.8217434,0.6649513 0.01156,0 0.02101,-0.299228 0.02101,-0.6649513 z m 6.366499,0.3526263 c 0.220201,-0.171779 0.400365,-0.330461 0.400365,-0.3526263 0,-0.03749 -0.775335,-0.664915 -0.821743,-0.66498 -0.01156,-1.6e-5 -0.02101,0.299189 -0.02101,0.6649 0,0.3657123 0.0095,0.6649523 0.02101,0.6649803 0.01156,2.8e-5 0.201178,-0.140495 0.421378,-0.312274 z M 9.6400516,9.08987 C 9.8925526,8.8924997 10.234314,8.6366391 10.399522,8.521291 L 10.6999,8.3115671 10.72626,8.0036201 c 0.0145,-0.1693709 0.06441,-0.593965 0.110921,-0.9435425 0.04651,-0.3495774 0.07377,-0.6463872 0.06058,-0.6595772 -0.04801,-0.048014 -1.0545494,-0.2946928 -1.4651914,-0.3590853 -0.615948,-0.096587 -1.449628,-0.069185 -1.732485,0.056944 -0.312392,0.139299 -0.390288,0.2423629 -0.408693,0.5407393 -0.02592,0.4202364 0.175324,0.8711038 0.7023,1.573426 0.265568,0.3539324 1.085497,1.2362013 1.148853,1.2362013 0.02113,0 0.245007,-0.1614855 0.497507,-0.3588557 z M 18.503575,9.042714 C 19.434982,8.0723213 19.937508,7.2498249 19.93711,6.6964136 19.936899,6.4016534 19.831979,6.246129 19.543277,6.1126293 19.337694,6.0175647 19.253032,6.0042337 18.764753,5.9900419 c -0.38252,-0.011118 -0.676232,0.00421 -0.973238,0.05078 -0.413588,0.064855 -1.420752,0.3114591 -1.468971,0.3596782 -0.01319,0.01319 0.01407,0.3099998 0.06058,0.6595772 0.04651,0.3495775 0.09634,0.7732534 0.11073,0.9415021 l 0.02617,0.3059066 0.429092,0.3080622 c 0.236001,0.1694342 0.574173,0.4255167 0.751493,0.5690721 0.17732,0.1435554 0.342846,0.2617064 0.367834,0.2625574 0.02499,8.5e-4 0.220799,-0.1811576 0.435132,-0.4044637 z M 12.292758,7.326052 c 0.217446,-0.1242927 0.380661,-0.2403042 0.3627,-0.2578034 -0.0453,-0.044136 -0.944071,-0.4089968 -0.962383,-0.3906848 -0.02321,0.023212 -0.138225,0.8217344 -0.138225,0.9596778 v 0.1234496 l 0.171275,-0.1043263 c 0.0942,-0.057379 0.349186,-0.2060203 0.566633,-0.3303129 z m 3.313933,-0.2019258 c -0.03523,-0.237136 -0.0705,-0.4376072 -0.07839,-0.4454917 -0.01985,-0.019849 -0.947137,0.3536189 -0.970047,0.3906888 -0.01019,0.016494 0.230223,0.1751911 0.534259,0.3526604 0.647138,0.3777418 0.61713,0.3951246 0.514178,-0.2978575 z M 14.178006,6.3727561 c 0.319384,-0.140231 0.716711,-0.306106 0.882949,-0.3686111 0.166237,-0.062505 0.308217,-0.1184639 0.31551,-0.1243529 0.0073,-0.00589 -0.04401,-0.2253834 -0.113999,-0.4877651 -0.418586,-1.5691691 -1.086224,-2.6331103 -1.652313,-2.6331103 -0.566089,0 -1.233727,1.0639412 -1.652313,2.6331103 -0.06999,0.2623817 -0.121292,0.4812566 -0.113999,0.4863886 0.0073,0.00513 0.209675,0.08654 0.449739,0.1809076 0.31616,0.1242802 1.176822,0.4992476 1.300075,0.5664084 0.002,0.00109 0.264966,-0.1127444 0.584351,-0.2529755 z"
         id="path2" /></g><text
       xml:space="preserve"
       style="font-style:normal;font-variant:normal;font-weight:500;font-stretch:normal;font-size:7.69804px;font-family:Montserrat;-inkscape-font-specification:'Montserrat Medium';fill:#faa20a;fill-opacity:1;stroke-width:0.240563"
       x="-239.87019"
       y="138.71992"
       id="text1"><tspan
         sodipodi:role="line"
         id="tspan1"
         style="font-style:normal;font-variant:normal;font-weight:600;font-stretch:normal;font-size:7.69804px;font-family:Montserrat;-inkscape-font-specification:'Montserrat Semi-Bold';fill:#f9f9f9;stroke-width:0.240563"
         x="-239.87019"
         y="138.71992">ATHEIST</tspan></text></g></svg>
