<?xml version="1.0" encoding="UTF-8" standalone="no"?>
<!-- Created with Inkscape (http://www.inkscape.org/) -->

<svg
   width="200"
   height="200"
   viewBox="0 0 52.916668 52.916666"
   version="1.1"
   id="svg8"
   inkscape:version="1.3.2 (091e20e, 2023-11-25, custom)"
   sodipodi:docname="common.svg"
   xml:space="preserve"
   xmlns:inkscape="http://www.inkscape.org/namespaces/inkscape"
   xmlns:sodipodi="http://sodipodi.sourceforge.net/DTD/sodipodi-0.dtd"
   xmlns="http://www.w3.org/2000/svg"
   xmlns:svg="http://www.w3.org/2000/svg"
   xmlns:rdf="http://www.w3.org/1999/02/22-rdf-syntax-ns#"
   xmlns:cc="http://creativecommons.org/ns#"
   xmlns:dc="http://purl.org/dc/elements/1.1/"><defs
     id="defs2"><inkscape:path-effect
       effect="envelope"
       id="path-effect4658"
       is_visible="true"
       yy="true"
       xx="true"
       bendpath1="m -199.08406,108.42369 h 7.0057"
       bendpath2="m -192.07836,108.42369 v 6.75242"
       bendpath3="m -199.08406,115.17611 h 7.0057"
       bendpath4="m -199.08406,108.42369 v 6.75242" /><inkscape:path-effect
       effect="bend_path"
       id="path-effect4656"
       is_visible="true"
       bendpath="m -192.00142,114.60623 c 2.12577,-0.53066 4.48261,0.85111 7.0057,0"
       prop_scale="1"
       scale_y_rel="false"
       vertical="false"
       bendpath-nodetypes="cc" /><inkscape:path-effect
       effect="bounding_box"
       id="path-effect4654"
       is_visible="true"
       linkedpath=""
       visualbounds="false" /></defs><sodipodi:namedview
     id="base"
     pagecolor="#ffffff"
     bordercolor="#666666"
     borderopacity="1.0"
     inkscape:pageopacity="0.0"
     inkscape:pageshadow="2"
     inkscape:zoom="1.3186734"
     inkscape:cx="39.43357"
     inkscape:cy="78.487972"
     inkscape:document-units="mm"
     inkscape:current-layer="layer1"
     showgrid="false"
     fit-margin-top="0"
     fit-margin-left="0"
     fit-margin-right="0"
     fit-margin-bottom="0"
     inkscape:window-width="1366"
     inkscape:window-height="705"
     inkscape:window-x="-8"
     inkscape:window-y="-8"
     inkscape:window-maximized="1"
     showguides="false"
     inkscape:object-nodes="true"
     units="px"
     inkscape:snap-page="true"
     inkscape:showpageshadow="2"
     inkscape:pagecheckerboard="0"
     inkscape:deskcolor="#d1d1d1" /><metadata
     id="metadata5"><rdf:RDF><cc:Work
         rdf:about=""><dc:format>image/svg+xml</dc:format><dc:type
           rdf:resource="http://purl.org/dc/dcmitype/StillImage" /></cc:Work></rdf:RDF></metadata><g
     inkscape:label="Layer 1"
     inkscape:groupmode="layer"
     id="layer1"
     transform="translate(249.80447,-91.409467)"><g
       style="stroke-width:0.5"
       id="g5334"
       transform="matrix(2,0,0,2,-249.80447,91.409467)"><rect
         ry="1.984375"
         rx="1.984375"
         style="opacity:1;fill:#212121;fill-opacity:1;fill-rule:nonzero;stroke:none;stroke-width:0.25;stroke-linecap:butt;stroke-linejoin:round;stroke-miterlimit:4;stroke-dasharray:none;stroke-dashoffset:0;stroke-opacity:0.90944878;paint-order:normal"
         id="rect5322"
         width="26.458334"
         height="26.458334"
         x="0"
         y="-1.110223e-16" /><rect
         ry="1.3229166"
         rx="1.3229166"
         y="1.322917"
         x="1.322917"
         height="23.8125"
         width="23.8125"
         id="rect5324"
         style="opacity:1;fill:#eb0909;fill-opacity:1;fill-rule:nonzero;stroke:none;stroke-width:0.25;stroke-linecap:butt;stroke-linejoin:round;stroke-miterlimit:4;stroke-dasharray:none;stroke-dashoffset:0;stroke-opacity:0.90944878;paint-order:normal"
         inkscape:label="inside" /><path
         inkscape:connector-curvature="0"
         id="path5326"
         d="m 0.72760467,18.520836 v 4.167188 c 0,1.539081 1.23904383,2.778124 2.77812503,2.778124 H 22.952604 c 1.539081,0 2.778125,-1.239043 2.778125,-2.778124 v -4.167188 z"
         style="opacity:1;fill:#222222;fill-opacity:1;fill-rule:nonzero;stroke:none;stroke-width:0.24999999;stroke-linecap:butt;stroke-linejoin:round;stroke-miterlimit:4;stroke-dasharray:none;stroke-dashoffset:0;stroke-opacity:0.90944878;paint-order:normal" /></g><text
       xml:space="preserve"
       style="font-style:normal;font-variant:normal;font-weight:500;font-stretch:normal;font-size:7.69804px;font-family:Montserrat;-inkscape-font-specification:'Montserrat Medium';fill:#faa20a;fill-opacity:1;stroke-width:0.240563"
       x="-243.2653"
       y="138.40781"
       id="text1"><tspan
         sodipodi:role="line"
         id="tspan1"
         style="font-style:normal;font-variant:normal;font-weight:600;font-stretch:normal;font-size:7.69804px;font-family:Montserrat;-inkscape-font-specification:'Montserrat Semi-Bold';fill:#f9f9f9;stroke-width:0.240563"
         x="-243.2653"
         y="138.40781">COMMON</tspan></text><path
       style="fill:#212121;fill-opacity:1;stroke-width:0.284219"
       d="m -228.5951,132.76012 c 0.68768,0.38581 1.46455,0.48772 2.18419,0.28658 0.499,-0.13946 1.25002,-0.8229 1.39934,-1.27344 0.0921,-0.27764 0.0686,-5.79581 -0.025,-5.8958 -0.0228,-0.0246 -1.12076,-0.10777 -2.43969,-0.18515 l -2.39806,-0.14067 -0.0593,2.71341 c -0.0575,2.62715 -0.0525,2.72781 0.15682,3.16572 0.2462,0.51519 0.75929,1.09235 1.18175,1.32933 z m -8.65629,-14.19817 c 1.85402,1.39238 3.94014,2.24973 6.38468,2.62396 0.41609,0.0637 1.8945,0.15113 3.28537,0.19429 l 2.52885,0.0785 -0.0239,-1.95057 c -0.0131,-1.07283 -0.0354,-2.00322 -0.0495,-2.06755 -0.0179,-0.0812 -0.27266,-0.13418 -0.83309,-0.17331 -1.87387,-0.13078 -3.98055,-1.05171 -5.72536,-2.50283 -0.82226,-0.68385 -2.16772,-2.22791 -2.72446,-3.12656 -2.09306,-3.37858 -2.38482,-7.00845 -0.78174,-9.72575 1.80664,-3.062199 5.85801,-4.836455 11.74402,-5.143058 2.14098,-0.111511 5.68866,0.07607 8.48162,0.448479 0.72835,0.09713 1.30145,0.152224 1.27359,0.122466 -0.12365,-0.132074 -2.34572,-1.319013 -3.44144,-1.838286 -5.21103,-2.469582 -9.99366,-3.278359 -14.15892,-2.394372 -4.57791,0.971552 -8.22382,4.193769 -9.94324,8.787721 -1.68374,4.49862 -1.30789,9.432 1.01553,13.32979 0.49332,0.8276 2.23699,2.78813 2.96798,3.33711 z m 9.89197,5.70296 2.88089,0.15758 0.0754,-0.21424 c 0.11005,-0.31267 0.0919,-0.68983 -0.0485,-1.00937 l -0.12335,-0.28059 -2.89186,-0.0988 c -3.05368,-0.10436 -3.02267,-0.108 -3.06814,0.35993 -0.0206,0.21187 0.0579,0.51264 0.19796,0.75831 0.0857,0.15035 0.42462,0.18758 2.97761,0.32723 z"
       id="path2" /></g></svg>
