<?xml version="1.0" encoding="UTF-8" standalone="no"?>
<!-- Created with Inkscape (http://www.inkscape.org/) -->

<svg
   width="200"
   height="200"
   viewBox="0 0 52.916668 52.916666"
   version="1.1"
   id="svg8"
   inkscape:version="1.3.2 (091e20e, 2023-11-25, custom)"
   sodipodi:docname="command.svg"
   xml:space="preserve"
   xmlns:inkscape="http://www.inkscape.org/namespaces/inkscape"
   xmlns:sodipodi="http://sodipodi.sourceforge.net/DTD/sodipodi-0.dtd"
   xmlns="http://www.w3.org/2000/svg"
   xmlns:svg="http://www.w3.org/2000/svg"
   xmlns:rdf="http://www.w3.org/1999/02/22-rdf-syntax-ns#"
   xmlns:cc="http://creativecommons.org/ns#"
   xmlns:dc="http://purl.org/dc/elements/1.1/"><defs
     id="defs2"><inkscape:path-effect
       effect="envelope"
       id="path-effect4658"
       is_visible="true"
       yy="true"
       xx="true"
       bendpath1="m -199.08406,108.42369 h 7.0057"
       bendpath2="m -192.07836,108.42369 v 6.75242"
       bendpath3="m -199.08406,115.17611 h 7.0057"
       bendpath4="m -199.08406,108.42369 v 6.75242" /><inkscape:path-effect
       effect="bend_path"
       id="path-effect4656"
       is_visible="true"
       bendpath="m -192.00142,114.60623 c 2.12577,-0.53066 4.48261,0.85111 7.0057,0"
       prop_scale="1"
       scale_y_rel="false"
       vertical="false"
       bendpath-nodetypes="cc" /><inkscape:path-effect
       effect="bounding_box"
       id="path-effect4654"
       is_visible="true"
       linkedpath=""
       visualbounds="false" /></defs><sodipodi:namedview
     id="base"
     pagecolor="#ffffff"
     bordercolor="#666666"
     borderopacity="1.0"
     inkscape:pageopacity="0.0"
     inkscape:pageshadow="2"
     inkscape:zoom="1.7469907"
     inkscape:cx="194.04797"
     inkscape:cy="92.44468"
     inkscape:document-units="mm"
     inkscape:current-layer="layer1"
     showgrid="false"
     fit-margin-top="0"
     fit-margin-left="0"
     fit-margin-right="0"
     fit-margin-bottom="0"
     inkscape:window-width="1366"
     inkscape:window-height="705"
     inkscape:window-x="-8"
     inkscape:window-y="-8"
     inkscape:window-maximized="1"
     showguides="false"
     inkscape:object-nodes="true"
     units="px"
     inkscape:snap-page="true"
     inkscape:showpageshadow="2"
     inkscape:pagecheckerboard="0"
     inkscape:deskcolor="#d1d1d1" /><metadata
     id="metadata5"><rdf:RDF><cc:Work
         rdf:about=""><dc:format>image/svg+xml</dc:format><dc:type
           rdf:resource="http://purl.org/dc/dcmitype/StillImage" /></cc:Work></rdf:RDF></metadata><g
     inkscape:label="Layer 1"
     inkscape:groupmode="layer"
     id="layer1"
     transform="translate(249.80447,-91.409467)"><g
       style="stroke-width:0.5"
       id="g5334"
       transform="matrix(2,0,0,2,-249.80447,91.409467)"><rect
         ry="1.984375"
         rx="1.984375"
         style="opacity:1;fill:#212121;fill-opacity:1;fill-rule:nonzero;stroke:none;stroke-width:0.25;stroke-linecap:butt;stroke-linejoin:round;stroke-miterlimit:4;stroke-dasharray:none;stroke-dashoffset:0;stroke-opacity:0.90944878;paint-order:normal"
         id="rect5322"
         width="26.458334"
         height="26.458334"
         x="0"
         y="-1.110223e-16" /><rect
         ry="1.3229166"
         rx="1.3229166"
         y="1.322917"
         x="1.322917"
         height="23.8125"
         width="23.8125"
         id="rect5324"
         style="opacity:1;fill:#6b2c2c;fill-opacity:1;fill-rule:nonzero;stroke:none;stroke-width:0.25;stroke-linecap:butt;stroke-linejoin:round;stroke-miterlimit:4;stroke-dasharray:none;stroke-dashoffset:0;stroke-opacity:0.90944878;paint-order:normal"
         inkscape:label="inside" /><path
         inkscape:connector-curvature="0"
         id="path5326"
         d="m 0.72760467,18.520836 v 4.167188 c 0,1.539081 1.23904383,2.778124 2.77812503,2.778124 H 22.952604 c 1.539081,0 2.778125,-1.239043 2.778125,-2.778124 v -4.167188 z"
         style="opacity:1;fill:#222222;fill-opacity:1;fill-rule:nonzero;stroke:none;stroke-width:0.24999999;stroke-linecap:butt;stroke-linejoin:round;stroke-miterlimit:4;stroke-dasharray:none;stroke-dashoffset:0;stroke-opacity:0.90944878;paint-order:normal" /></g><text
       xml:space="preserve"
       style="font-style:normal;font-variant:normal;font-weight:500;font-stretch:normal;font-size:7.69804px;font-family:Montserrat;-inkscape-font-specification:'Montserrat Medium';fill:#faa20a;fill-opacity:1;stroke-width:0.240563"
       x="-245.25157"
       y="138.26593"
       id="text1"><tspan
         sodipodi:role="line"
         id="tspan1"
         style="font-style:normal;font-variant:normal;font-weight:600;font-stretch:normal;font-size:7.69804px;font-family:Montserrat;-inkscape-font-specification:'Montserrat Semi-Bold';fill:#f9f9f9;stroke-width:0.240563"
         x="-245.25157"
         y="138.26593">COMMAND</tspan></text><path
       style="fill:#212121;stroke-width:0.188062;fill-opacity:1"
       d="m -233.65186,126.42969 c -1.57911,-0.25358 -2.88012,-0.91995 -3.92843,-2.01214 -0.89207,-0.92942 -1.46772,-2.01176 -1.74393,-3.27897 -0.1261,-0.57854 -0.1545,-1.77169 -0.0559,-2.35004 0.37807,-2.21804 1.6581,-3.97739 3.62334,-4.98018 0.89653,-0.45747 1.89631,-0.68611 3.00057,-0.68622 1.02735,-1.1e-4 1.91115,0.19105 2.81974,0.60983 0.18763,0.0864 0.35047,0.14794 0.36185,0.13656 0.0334,-0.0335 3.21088,-5.55566 3.23936,-5.62988 0.0157,-0.041 -0.0676,-0.13485 -0.21123,-0.23804 -1.38487,-0.99454 -2.37961,-2.60417 -2.67183,-4.32342 -0.10081,-0.59304 -0.10253,-1.59909 -0.003,-2.17407 0.16129,-0.93915 0.54555,-1.902403 1.07417,-2.69271 0.32873,-0.491451 1.25104,-1.415962 1.73631,-1.740467 1.73203,-1.158182 3.8749,-1.473111 5.80867,-0.853667 1.78293,0.571119 3.19688,1.803444 4.01757,3.501483 0.42495,0.879231 0.63493,1.837001 0.63273,2.885961 -0.003,1.631 -0.53755,3.06871 -1.62186,4.36563 -0.25114,0.30038 -0.95593,0.9302 -1.27161,1.13634 l -0.11998,0.0784 0.39876,0.6929 c 0.21933,0.38109 0.74183,1.28626 1.16111,2.01149 0.4193,0.72522 0.98654,1.71043 1.26056,2.18934 0.27401,0.47892 0.50334,0.87783 0.50963,0.88647 0.006,0.009 0.15256,-0.0555 0.32505,-0.14261 2.00304,-1.01114 4.52911,-0.92872 6.41379,0.20926 1.76055,1.06303 2.88058,2.72371 3.21604,4.76847 0.095,0.57868 0.066,1.77736 -0.0564,2.33921 -0.51439,2.35992 -2.21653,4.2661 -4.45962,4.9942 -0.79946,0.2595 -1.11408,0.30502 -2.10839,0.30502 -0.67832,0 -0.99736,-0.0219 -1.31488,-0.0904 -1.52403,-0.32848 -2.79239,-1.08592 -3.77605,-2.25497 -0.83621,-0.99382 -1.36459,-2.17623 -1.50545,-3.36891 -0.0297,-0.25066 -0.0645,-0.52923 -0.0775,-0.61906 l -0.0237,-0.16331 -3.50722,0.014 c -2.85348,0.0115 -3.51483,0.0263 -3.5481,0.0802 -0.0225,0.0364 -0.0552,0.25134 -0.0725,0.47763 -0.0174,0.22629 -0.0855,0.62384 -0.15137,0.88344 -0.63656,2.50944 -2.55968,4.36278 -5.13286,4.94665 -0.34174,0.0776 -1.91379,0.13836 -2.23654,0.0866 z m -3.14921,-2.85297 c 0.19518,-0.96267 0.33952,-1.31983 0.75888,-1.87768 0.62803,-0.83548 1.74636,-1.41293 2.96254,-1.52972 0.39723,-0.0382 1.15504,0.0494 1.5908,0.18385 1.3928,0.42964 2.43306,1.54099 2.668,2.85036 0.10783,0.60077 0.0989,0.58124 0.25646,0.56311 0.12303,-0.0141 0.1387,-0.0377 0.15253,-0.2295 0.0223,-0.30981 -0.15708,-0.96937 -0.38855,-1.42828 -0.40019,-0.79345 -1.03663,-1.40444 -1.91574,-1.83911 -1.46326,-0.72352 -3.28647,-0.60959 -4.62748,0.28913 -0.96036,0.64361 -1.60081,1.60805 -1.76964,2.66482 -0.0691,0.43262 -0.0351,0.56314 0.14179,0.54274 0.10989,-0.0126 0.14169,-0.048 0.17041,-0.18972 z m 20.46145,0.13684 c 0.0103,-0.0343 0.0544,-0.26372 0.0985,-0.51003 0.4381,-2.4416 3.42101,-3.77614 5.83484,-2.61047 1.07513,0.51918 1.90655,1.5623 2.06087,2.5856 0.0768,0.50904 0.11614,0.59708 0.26707,0.59708 0.16419,0 0.19611,-0.13594 0.12963,-0.55204 -0.13565,-0.84913 -0.54051,-1.58896 -1.21115,-2.21326 -0.90526,-0.84268 -2.06932,-1.26107 -3.34493,-1.20225 -1.86586,0.086 -3.42612,1.19278 -3.98085,2.82375 -0.12722,0.37404 -0.20923,0.93031 -0.15716,1.06598 0.0355,0.0924 0.27696,0.10495 0.30311,0.0156 z m -2.63897,-4.2792 c 0.0132,-0.089 0.0487,-0.35841 0.079,-0.5988 0.21361,-1.69914 1.25638,-3.442 2.65059,-4.43015 0.15736,-0.1115 0.28611,-0.2214 0.28611,-0.24416 0,-0.0228 -0.30602,-0.57252 -0.68006,-1.22171 -1.11096,-1.92827 -2.60894,-4.51081 -2.62685,-4.52873 -0.009,-0.009 -0.17012,0.0606 -0.35765,0.15496 -0.42536,0.2141 -1.06469,0.44109 -1.58491,0.56271 -0.571,0.13349 -2.21273,0.13384 -2.78645,5.6e-4 -0.57324,-0.13312 -1.08454,-0.30914 -1.55957,-0.53686 -0.22832,-0.10944 -0.42058,-0.19178 -0.42724,-0.18292 -0.0428,0.0569 -0.62582,1.05856 -1.29814,2.23033 -0.43181,0.75259 -0.89028,1.54747 -1.01883,1.76641 -0.44528,0.75842 -0.89052,1.54286 -0.92012,1.62114 -0.0213,0.0561 0.0498,0.13144 0.24708,0.26244 1.53358,1.01825 2.70986,2.99537 2.8404,4.77421 0.0164,0.22432 0.0386,0.43584 0.0491,0.47004 0.0152,0.049 0.76906,0.0622 3.55135,0.0622 h 3.53212 z m -15.10616,-0.34582 c 0.1077,-0.10771 0.0636,-0.2023 -0.22641,-0.48474 -1.33539,-1.30086 -0.65732,-3.50903 1.17826,-3.83708 0.87641,-0.15662 1.85204,0.30302 2.29812,1.08269 0.53219,0.93017 0.32434,2.16315 -0.47767,2.83354 -0.23318,0.19492 -0.27599,0.31105 -0.15245,0.41357 0.10943,0.0908 0.22627,0.0298 0.54114,-0.28257 0.18534,-0.18386 0.35491,-0.42029 0.4784,-0.66701 0.8802,-1.75859 -0.37213,-3.77545 -2.3443,-3.77545 -0.72584,0 -1.38925,0.29445 -1.89331,0.84034 -0.47974,0.51955 -0.6865,1.05434 -0.68433,1.76997 0.002,0.75992 0.22247,1.29672 0.7508,1.83059 0.33574,0.33928 0.4232,0.3847 0.53175,0.27615 z m 20.50028,0 c 0.10736,-0.10736 0.0633,-0.21469 -0.16675,-0.40706 -0.79476,-0.66434 -1.01254,-1.91381 -0.4892,-2.80681 0.76464,-1.30476 2.48757,-1.5273 3.55561,-0.45926 0.13022,0.13023 0.29481,0.35129 0.36572,0.49124 0.47975,0.94672 0.3169,1.9644 -0.43166,2.69745 -0.29033,0.28431 -0.33371,0.37714 -0.22639,0.48444 0.0995,0.0996 0.16944,0.0704 0.45393,-0.18969 0.55092,-0.50349 0.82704,-1.12564 0.82876,-1.8673 0.002,-0.81702 -0.20277,-1.32077 -0.76934,-1.8934 -0.52522,-0.53084 -1.09696,-0.76666 -1.85877,-0.76666 -1.23648,0 -2.27435,0.87519 -2.53549,2.13808 -0.18179,0.87922 0.17344,1.86965 0.8833,2.46272 0.22608,0.18889 0.29664,0.2099 0.39028,0.11625 z m -4.68196,-12.92588 c -0.11693,-1.39479 -1.26903,-2.7725 -2.76427,-3.30558 -1.36827,-0.48783 -3.04584,-0.28008 -4.22069,0.52269 -0.90785,0.62033 -1.54747,1.60248 -1.71125,2.62767 -0.0661,0.41361 -0.0343,0.55205 0.12681,0.55205 0.13967,0 0.22472,-0.12664 0.22472,-0.33459 0,-0.42832 0.35115,-1.27873 0.72396,-1.75324 0.54647,-0.69558 1.43239,-1.22759 2.37877,-1.42849 0.56613,-0.12019 1.62736,-0.0686 2.17161,0.10564 1.50468,0.48156 2.53789,1.65401 2.70927,3.07433 0.0378,0.31314 0.12941,0.41494 0.29413,0.32677 0.0839,-0.0449 0.0918,-0.0904 0.0669,-0.38723 z m -5.66769,-4.29038 c 0.1092,-0.1092 0.0609,-0.2118 -0.21305,-0.45206 -0.20225,-0.17737 -0.32398,-0.344 -0.47721,-0.65323 -0.17826,-0.35975 -0.20922,-0.47155 -0.23209,-0.838205 -0.12383,-1.98476 2.19344,-3.147218 3.70106,-1.856648 0.47163,0.403733 0.76405,1.052283 0.76405,1.694568 0,0.664245 -0.24037,1.208655 -0.7443,1.685785 -0.25972,0.2459 -0.29267,0.31827 -0.19115,0.41979 0.10667,0.10668 0.2188,0.064 0.47334,-0.18002 0.8545,-0.81928 1.0796,-1.989042 0.58463,-3.037883 -0.21417,-0.453794 -0.75559,-1.017441 -1.16744,-1.215351 -1.24342,-0.597501 -2.65342,-0.210325 -3.39302,0.931676 -0.27283,0.421293 -0.38859,0.836229 -0.38859,1.393026 0,0.770652 0.20776,1.283352 0.74083,1.828172 0.33355,0.34091 0.43172,0.3916 0.54294,0.28038 z"
       id="path2" /></g></svg>
