<?xml version="1.0" encoding="UTF-8" standalone="no"?>
<!-- Created with Inkscape (http://www.inkscape.org/) -->

<svg
   width="200"
   height="200"
   viewBox="0 0 52.916668 52.916666"
   version="1.1"
   id="svg8"
   inkscape:version="1.3.2 (091e20e, 2023-11-25, custom)"
   sodipodi:docname="discriminatory.svg"
   xml:space="preserve"
   xmlns:inkscape="http://www.inkscape.org/namespaces/inkscape"
   xmlns:sodipodi="http://sodipodi.sourceforge.net/DTD/sodipodi-0.dtd"
   xmlns="http://www.w3.org/2000/svg"
   xmlns:svg="http://www.w3.org/2000/svg"
   xmlns:rdf="http://www.w3.org/1999/02/22-rdf-syntax-ns#"
   xmlns:cc="http://creativecommons.org/ns#"
   xmlns:dc="http://purl.org/dc/elements/1.1/"><defs
     id="defs2"><inkscape:path-effect
       effect="envelope"
       id="path-effect4658"
       is_visible="true"
       yy="true"
       xx="true"
       bendpath1="m -199.08406,108.42369 h 7.0057"
       bendpath2="m -192.07836,108.42369 v 6.75242"
       bendpath3="m -199.08406,115.17611 h 7.0057"
       bendpath4="m -199.08406,108.42369 v 6.75242" /><inkscape:path-effect
       effect="bend_path"
       id="path-effect4656"
       is_visible="true"
       bendpath="m -192.00142,114.60623 c 2.12577,-0.53066 4.48261,0.85111 7.0057,0"
       prop_scale="1"
       scale_y_rel="false"
       vertical="false"
       bendpath-nodetypes="cc" /><inkscape:path-effect
       effect="bounding_box"
       id="path-effect4654"
       is_visible="true"
       linkedpath=""
       visualbounds="false" /></defs><sodipodi:namedview
     id="base"
     pagecolor="#ffffff"
     bordercolor="#666666"
     borderopacity="1.0"
     inkscape:pageopacity="0.0"
     inkscape:pageshadow="2"
     inkscape:zoom="1.7469907"
     inkscape:cx="66.399894"
     inkscape:cy="134.23082"
     inkscape:document-units="mm"
     inkscape:current-layer="layer1"
     showgrid="false"
     fit-margin-top="0"
     fit-margin-left="0"
     fit-margin-right="0"
     fit-margin-bottom="0"
     inkscape:window-width="1366"
     inkscape:window-height="705"
     inkscape:window-x="-8"
     inkscape:window-y="-8"
     inkscape:window-maximized="1"
     showguides="false"
     inkscape:object-nodes="true"
     units="px"
     inkscape:snap-page="true"
     inkscape:showpageshadow="2"
     inkscape:pagecheckerboard="0"
     inkscape:deskcolor="#d1d1d1" /><metadata
     id="metadata5"><rdf:RDF><cc:Work
         rdf:about=""><dc:format>image/svg+xml</dc:format><dc:type
           rdf:resource="http://purl.org/dc/dcmitype/StillImage" /></cc:Work></rdf:RDF></metadata><g
     inkscape:label="Layer 1"
     inkscape:groupmode="layer"
     id="layer1"
     transform="translate(249.80447,-91.409467)"><g
       style="stroke-width:0.5"
       id="g5334"
       transform="matrix(2,0,0,2,-249.80447,91.409467)"><rect
         ry="1.984375"
         rx="1.984375"
         style="opacity:1;fill:#212121;fill-opacity:1;fill-rule:nonzero;stroke:none;stroke-width:0.25;stroke-linecap:butt;stroke-linejoin:round;stroke-miterlimit:4;stroke-dasharray:none;stroke-dashoffset:0;stroke-opacity:0.90944878;paint-order:normal"
         id="rect5322"
         width="26.458334"
         height="26.458334"
         x="0"
         y="-1.110223e-16" /><rect
         ry="1.3229166"
         rx="1.3229166"
         y="1.322917"
         x="1.322917"
         height="23.8125"
         width="23.8125"
         id="rect5324"
         style="opacity:1;fill:#542f15;fill-opacity:1;fill-rule:nonzero;stroke:none;stroke-width:0.25;stroke-linecap:butt;stroke-linejoin:round;stroke-miterlimit:4;stroke-dasharray:none;stroke-dashoffset:0;stroke-opacity:0.90944878;paint-order:normal"
         inkscape:label="inside" /><path
         inkscape:connector-curvature="0"
         id="path5326"
         d="m 0.72760467,18.520836 v 4.167188 c 0,1.539081 1.23904383,2.778124 2.77812503,2.778124 H 22.952604 c 1.539081,0 2.778125,-1.239043 2.778125,-2.778124 v -4.167188 z"
         style="opacity:1;fill:#222222;fill-opacity:1;fill-rule:nonzero;stroke:none;stroke-width:0.24999999;stroke-linecap:butt;stroke-linejoin:round;stroke-miterlimit:4;stroke-dasharray:none;stroke-dashoffset:0;stroke-opacity:0.90944878;paint-order:normal" /></g><text
       xml:space="preserve"
       style="font-style:normal;font-variant:normal;font-weight:500;font-stretch:normal;font-size:5.28691px;font-family:Montserrat;-inkscape-font-specification:'Montserrat Medium';fill:#faa20a;fill-opacity:1;stroke-width:0.165216"
       x="-248.07645"
       y="136.81624"
       id="text1"><tspan
         sodipodi:role="line"
         id="tspan1"
         style="font-style:normal;font-variant:normal;font-weight:600;font-stretch:normal;font-size:5.28691px;font-family:Montserrat;-inkscape-font-specification:'Montserrat Semi-Bold';fill:#f9f9f9;stroke-width:0.165216"
         x="-248.07645"
         y="136.81624">DISCRIMINATORY</tspan></text><path
       style="fill:#212121;stroke-width:0.163948;fill-opacity:1"
       d="m -225.02378,127.77541 c -3.98596,-2.51562 -6.99239,-4.85945 -10.73577,-8.36969 -3.08218,-2.89023 -4.26496,-4.43168 -5.63827,-7.34804 -1.57337,-3.3412 -1.97937,-6.24792 -1.3178,-9.43465 0.44514,-2.14411 1.27874,-3.813618 2.57421,-5.155565 1.02986,-1.066792 2.17935,-1.844753 3.5886,-2.428726 1.81595,-0.752491 3.93726,-0.903677 5.88517,-0.419436 2.19108,0.544703 4.33708,2.029571 5.84103,4.04158 0.34169,0.457096 0.35492,0.484735 1.16385,2.429147 1.43956,3.46024 1.57038,3.78249 1.55772,3.83698 -0.0149,0.064 -0.27039,0.33199 -2.3111,2.4242 -3.40208,3.48788 -4.16507,4.27877 -4.17629,4.32893 -0.006,0.0288 0.48993,0.67684 1.10301,1.44028 1.5789,1.96616 4.09854,5.10318 5.35992,6.67327 0.59113,0.7358 1.07478,1.35558 1.07478,1.37729 0,0.0217 -0.35135,0.75682 -0.78078,1.63356 -0.42942,0.87674 -1.18616,2.42217 -1.68164,3.43426 -0.49547,1.01211 -0.92005,1.8458 -0.94348,1.85266 -0.0234,0.007 -0.27687,-0.13535 -0.56316,-0.31605 z m 2.62434,0.31909 c 0,-0.01 0.36345,-0.7577 0.80764,-1.66175 0.44421,-0.90406 0.94951,-1.93653 1.1229,-2.2944 0.17339,-0.35786 0.57115,-1.17441 0.8839,-1.81456 l 0.56865,-1.16388 -0.19166,-0.24589 c -0.10541,-0.13523 -0.60839,-0.76315 -1.11775,-1.39539 -0.50935,-0.63223 -1.9985,-2.48662 -3.30919,-4.12087 -1.31071,-1.63426 -2.51576,-3.13498 -2.67789,-3.33497 l -0.29479,-0.36358 0.33508,-0.35214 c 0.18431,-0.19368 1.65331,-1.70539 3.26446,-3.35934 1.61115,-1.65396 2.93504,-3.02275 2.94197,-3.04176 0.007,-0.019 -0.51521,-1.30389 -1.16034,-2.8553 -0.64513,-1.55142 -1.17298,-2.847378 -1.17298,-2.879884 0,-0.142264 0.61153,-0.944273 1.14869,-1.506483 0.93414,-0.977732 1.62452,-1.528486 2.65848,-2.120861 3.51464,-2.013587 7.85593,-1.558416 11.09306,1.163069 1.59002,1.336747 2.66301,3.114573 3.20635,5.312619 0.49502,2.00258 0.56281,3.82925 0.21489,5.79092 -0.45422,2.56098 -2.02278,5.94004 -3.78477,8.15326 -0.60153,0.75558 -0.95831,1.14349 -2.04393,2.22227 -3.72131,3.69784 -7.56565,6.78115 -11.73364,9.41083 -0.79701,0.50284 -0.75913,0.47998 -0.75913,0.45809 z"
       id="path2" /></g></svg>
