<?xml version="1.0" encoding="UTF-8" standalone="no"?>
<!-- Created with Inkscape (http://www.inkscape.org/) -->

<svg
   width="200"
   height="200"
   viewBox="0 0 52.916668 52.916666"
   version="1.1"
   id="svg8"
   inkscape:version="1.3.2 (091e20e, 2023-11-25, custom)"
   sodipodi:docname="ecology.svg"
   xml:space="preserve"
   xmlns:inkscape="http://www.inkscape.org/namespaces/inkscape"
   xmlns:sodipodi="http://sodipodi.sourceforge.net/DTD/sodipodi-0.dtd"
   xmlns="http://www.w3.org/2000/svg"
   xmlns:svg="http://www.w3.org/2000/svg"
   xmlns:rdf="http://www.w3.org/1999/02/22-rdf-syntax-ns#"
   xmlns:cc="http://creativecommons.org/ns#"
   xmlns:dc="http://purl.org/dc/elements/1.1/"><defs
     id="defs2"><inkscape:path-effect
       effect="envelope"
       id="path-effect4658"
       is_visible="true"
       yy="true"
       xx="true"
       bendpath1="m -199.08406,108.42369 h 7.0057"
       bendpath2="m -192.07836,108.42369 v 6.75242"
       bendpath3="m -199.08406,115.17611 h 7.0057"
       bendpath4="m -199.08406,108.42369 v 6.75242" /><inkscape:path-effect
       effect="bend_path"
       id="path-effect4656"
       is_visible="true"
       bendpath="m -192.00142,114.60623 c 2.12577,-0.53066 4.48261,0.85111 7.0057,0"
       prop_scale="1"
       scale_y_rel="false"
       vertical="false"
       bendpath-nodetypes="cc" /><inkscape:path-effect
       effect="bounding_box"
       id="path-effect4654"
       is_visible="true"
       linkedpath=""
       visualbounds="false" /></defs><sodipodi:namedview
     id="base"
     pagecolor="#ffffff"
     bordercolor="#666666"
     borderopacity="1.0"
     inkscape:pageopacity="0.0"
     inkscape:pageshadow="2"
     inkscape:zoom="1.235309"
     inkscape:cx="195.9024"
     inkscape:cy="79.737134"
     inkscape:document-units="mm"
     inkscape:current-layer="layer1"
     showgrid="false"
     fit-margin-top="0"
     fit-margin-left="0"
     fit-margin-right="0"
     fit-margin-bottom="0"
     inkscape:window-width="1366"
     inkscape:window-height="705"
     inkscape:window-x="-8"
     inkscape:window-y="-8"
     inkscape:window-maximized="1"
     showguides="false"
     inkscape:object-nodes="true"
     units="px"
     inkscape:snap-page="true"
     inkscape:showpageshadow="2"
     inkscape:pagecheckerboard="0"
     inkscape:deskcolor="#d1d1d1" /><metadata
     id="metadata5"><rdf:RDF><cc:Work
         rdf:about=""><dc:format>image/svg+xml</dc:format><dc:type
           rdf:resource="http://purl.org/dc/dcmitype/StillImage" /></cc:Work></rdf:RDF></metadata><g
     inkscape:label="Layer 1"
     inkscape:groupmode="layer"
     id="layer1"
     transform="translate(249.80447,-91.409467)"><g
       style="stroke-width:0.5"
       id="g5334"
       transform="matrix(2,0,0,2,-249.80447,91.409467)"><rect
         ry="1.984375"
         rx="1.984375"
         style="opacity:1;fill:#212121;fill-opacity:1;fill-rule:nonzero;stroke:none;stroke-width:0.25;stroke-linecap:butt;stroke-linejoin:round;stroke-miterlimit:4;stroke-dasharray:none;stroke-dashoffset:0;stroke-opacity:0.90944878;paint-order:normal"
         id="rect5322"
         width="26.458334"
         height="26.458334"
         x="0"
         y="-1.110223e-16" /><rect
         ry="1.3229166"
         rx="1.3229166"
         y="1.322917"
         x="1.322917"
         height="23.8125"
         width="23.8125"
         id="rect5324"
         style="opacity:1;fill:#3e693a;fill-opacity:1;fill-rule:nonzero;stroke:none;stroke-width:0.25;stroke-linecap:butt;stroke-linejoin:round;stroke-miterlimit:4;stroke-dasharray:none;stroke-dashoffset:0;stroke-opacity:0.90944878;paint-order:normal"
         inkscape:label="inside" /><path
         inkscape:connector-curvature="0"
         id="path5326"
         d="m 0.72760467,18.520836 v 4.167188 c 0,1.539081 1.23904383,2.778124 2.77812503,2.778124 H 22.952604 c 1.539081,0 2.778125,-1.239043 2.778125,-2.778124 v -4.167188 z"
         style="opacity:1;fill:#222222;fill-opacity:1;fill-rule:nonzero;stroke:none;stroke-width:0.24999999;stroke-linecap:butt;stroke-linejoin:round;stroke-miterlimit:4;stroke-dasharray:none;stroke-dashoffset:0;stroke-opacity:0.90944878;paint-order:normal" /></g><text
       xml:space="preserve"
       style="font-style:normal;font-variant:normal;font-weight:500;font-stretch:normal;font-size:7.69804px;font-family:Montserrat;-inkscape-font-specification:'Montserrat Medium';fill:#faa20a;fill-opacity:1;stroke-width:0.240563"
       x="-243.04439"
       y="138.41739"
       id="text1"><tspan
         sodipodi:role="line"
         id="tspan1"
         style="font-style:normal;font-variant:normal;font-weight:600;font-stretch:normal;font-size:7.69804px;font-family:Montserrat;-inkscape-font-specification:'Montserrat Semi-Bold';fill:#f9f9f9;stroke-width:0.240563"
         x="-243.04439"
         y="138.41739">ECOLOGY</tspan></text><path
       style="fill:#212121;fill-opacity:1;stroke-width:0.167718"
       d="m -212.38673,129.50411 c 0.17413,-0.69375 0.44616,-1.94963 0.5374,-2.48089 0.0987,-0.57447 0.1132,-0.78516 0.11024,-1.59727 -0.002,-0.51452 -0.0227,-1.23341 -0.0463,-1.59752 -0.0236,-0.3641 -0.0433,-0.75406 -0.0438,-0.86658 l -6.9e-4,-0.20457 -0.24674,-0.0255 c -0.30125,-0.0311 -0.65866,-0.19437 -1.28202,-0.58568 -0.28719,-0.18027 -0.50351,-0.28825 -0.54876,-0.2739 -0.0411,0.013 -0.21113,0.0752 -0.37789,0.13812 -0.46495,0.1755 -1.07547,0.23053 -1.59108,0.14343 -1.57127,-0.26547 -2.66927,-1.47377 -2.8098,-3.09208 l -0.0328,-0.3772 -0.279,-0.2961 c -0.34187,-0.36283 -0.59811,-0.78795 -0.75767,-1.25704 -0.15964,-0.4693 -0.19895,-1.26501 -0.0873,-1.76689 0.15008,-0.6746 0.59761,-1.39657 1.13466,-1.83049 l 0.29864,-0.24128 0.0309,-0.42074 c 0.0387,-0.5275 0.15943,-0.96813 0.38278,-1.39726 0.57138,-1.09781 1.68815,-1.77623 2.92391,-1.77623 h 0.42683 l 0.0811,-0.31498 c 0.29276,-1.13646 1.21656,-2.05874 2.37917,-2.37524 0.43072,-0.11726 1.24698,-0.10766 1.69999,0.02 0.77858,0.21937 1.43519,0.68901 1.88757,1.35008 0.13733,0.20068 0.23798,0.25915 0.29296,0.17018 0.0477,-0.0772 0.71971,-0.30556 1.06145,-0.36069 0.39409,-0.0635 0.95471,-0.0363 1.34734,0.0653 0.94427,0.24468 1.78044,0.94518 2.18151,1.82754 l 0.10314,0.2269 0.35294,0.0695 c 0.43859,0.0864 1.07607,0.39219 1.42405,0.68307 0.52454,0.43847 0.93094,1.07689 1.10246,1.73183 0.12455,0.47563 0.12418,1.19314 -6.9e-4,1.67079 -0.0503,0.19194 -0.0783,0.37166 -0.0622,0.39938 0.016,0.0277 0.0843,0.1214 0.15169,0.20817 0.38419,0.49453 0.61692,1.22626 0.61692,1.93966 0,1.29995 -0.69173,2.41551 -1.86377,3.00575 l -0.28849,0.14527 -0.0574,0.30273 c -0.31524,1.66183 -1.9204,2.83592 -3.61056,2.64094 -0.45368,-0.0523 -0.99227,-0.22356 -1.30202,-0.41395 l -0.22188,-0.13637 -0.69542,0.72262 -0.69543,0.72263 -0.0513,0.2934 c -0.23078,1.31994 -0.24997,2.15629 -0.0709,3.08905 0.10556,0.54983 0.38083,1.84651 0.45322,2.13492 l 0.0266,0.10605 h -2.00652 -2.00652 z m 3.50629,-6.83448 c 0.2461,-0.12098 0.71469,-0.44547 0.83229,-0.57635 0.0731,-0.0813 0.0708,-0.0923 -0.0514,-0.24046 -0.2989,-0.36263 -0.58103,-0.9743 -0.65089,-1.41118 -0.0332,-0.20756 -0.0548,-0.21277 -0.32752,-0.0791 l -0.19886,0.0974 -0.14443,0.64325 c -0.17591,0.78354 -0.22252,1.25352 -0.14701,1.48235 0.0892,0.27039 0.26512,0.2919 0.68783,0.0841 z m -1.58693,-0.64588 c 0.168,-0.18372 0.27034,-0.47979 0.43716,-1.2647 0.0207,-0.0973 0.0118,-0.0998 -0.35392,-0.0998 -0.43484,0 -0.88729,-0.0857 -1.26716,-0.24008 -0.14715,-0.0598 -0.26754,-0.0996 -0.26754,-0.0885 0,0.0527 0.34452,0.69497 0.55726,1.03889 0.28693,0.46386 0.55622,0.7541 0.69965,0.7541 0.0568,0 0.14434,-0.045 0.19455,-0.0998 z m -1.56842,-0.86532 c -0.15994,-0.33558 -0.30104,-0.63512 -0.31354,-0.66563 -0.0366,-0.0893 -0.0738,-0.0653 -0.1762,0.11406 -0.053,0.0929 -0.1906,0.2845 -0.30575,0.42586 -0.16587,0.20362 -0.19655,0.26544 -0.14768,0.29757 0.43773,0.28776 0.79232,0.43582 1.04721,0.43726 l 0.18676,6.8e-4 z"
       id="path2-4" /><path
       style="fill:#212121;stroke-width:0.243608;fill-opacity:1"
       d="m -233.59933,129.89546 c 0.25291,-1.00766 0.64804,-2.83181 0.78056,-3.60345 0.1433,-0.83441 0.16442,-1.14043 0.16012,-2.32001 -0.003,-0.74734 -0.033,-1.79151 -0.0672,-2.32037 -0.0343,-0.52886 -0.0629,-1.09527 -0.0636,-1.2587 l -0.001,-0.29714 -0.35839,-0.037 c -0.43756,-0.0452 -0.95669,-0.28232 -1.86211,-0.85069 -0.41714,-0.26185 -0.73134,-0.41868 -0.79707,-0.39784 -0.0597,0.0189 -0.30666,0.10919 -0.54888,0.20062 -0.67532,0.25491 -1.5621,0.33484 -2.31102,0.20832 -2.28224,-0.38559 -3.87707,-2.14063 -4.08119,-4.4912 l -0.0476,-0.54787 -0.40524,-0.43009 c -0.49656,-0.527 -0.86874,-1.14448 -1.10051,-1.82582 -0.23187,-0.68165 -0.28897,-1.83741 -0.12679,-2.56638 0.21799,-0.97985 0.86802,-2.0285 1.64807,-2.65876 l 0.43377,-0.35046 0.0449,-0.61112 c 0.0562,-0.76619 0.23157,-1.4062 0.55598,-2.0295 0.82992,-1.59455 2.45202,-2.57995 4.24694,-2.57995 h 0.61996 l 0.11785,-0.4575 c 0.42523,-1.650704 1.76704,-2.990294 3.45571,-3.450004 0.62562,-0.17031 1.81123,-0.15638 2.46922,0.029 1.13087,0.31863 2.08459,1.00077 2.74166,1.96096 0.19947,0.29149 0.34566,0.37641 0.42552,0.24719 0.0693,-0.11215 1.04537,-0.44383 1.54175,-0.5239 0.57241,-0.0923 1.3867,-0.0528 1.95699,0.0949 1.37153,0.3554 2.58606,1.372864 3.1686,2.654474 l 0.14981,0.32958 0.51265,0.10099 c 0.63704,0.12551 1.56297,0.56964 2.06841,0.99215 0.76188,0.63687 1.35218,1.56416 1.6013,2.51546 0.18091,0.69084 0.18037,1.73301 -10e-4,2.42679 -0.073,0.27879 -0.11368,0.53983 -0.0904,0.58009 0.0233,0.0403 0.12241,0.17633 0.22033,0.30237 0.55802,0.71829 0.89606,1.78113 0.89606,2.81733 0,1.88816 -1.00472,3.50849 -2.7071,4.3658 l -0.41902,0.21101 -0.0834,0.4397 c -0.45789,2.41379 -2.78936,4.11914 -5.24429,3.83594 -0.65896,-0.076 -1.44126,-0.32473 -1.89116,-0.60126 l -0.32228,-0.19808 -1.01009,1.0496 -1.0101,1.0496 -0.0745,0.42616 c -0.3352,1.9172 -0.36308,3.13199 -0.10297,4.48681 0.15333,0.79862 0.55316,2.68202 0.6583,3.10093 l 0.0387,0.15404 h -2.91444 -2.91444 z m 5.09283,-9.92698 c 0.35746,-0.17572 1.03807,-0.64703 1.20888,-0.83713 0.10617,-0.11814 0.10277,-0.13403 -0.0746,-0.34927 -0.43416,-0.52671 -0.84394,-1.41515 -0.94541,-2.04972 -0.0482,-0.30147 -0.0796,-0.30904 -0.47573,-0.11495 l -0.28884,0.14151 -0.20977,0.9343 c -0.25552,1.13808 -0.32322,1.82072 -0.21353,2.15309 0.12962,0.39275 0.38508,0.42399 0.99905,0.12217 z m -2.30499,-0.93812 c 0.24401,-0.26686 0.39266,-0.6969 0.63496,-1.83696 0.03,-0.14139 0.0172,-0.14502 -0.51406,-0.14502 -0.6316,0 -1.28878,-0.12451 -1.84053,-0.34871 -0.21373,-0.0868 -0.3886,-0.1447 -0.3886,-0.12858 0,0.0765 0.50041,1.00944 0.80942,1.50898 0.41676,0.67375 0.80789,1.09532 1.01623,1.09532 0.0825,0 0.20965,-0.0653 0.28258,-0.14503 z m -2.27811,-1.25687 c -0.23231,-0.48743 -0.43725,-0.9225 -0.45542,-0.96682 -0.0532,-0.12977 -0.10723,-0.0948 -0.25592,0.16567 -0.077,0.13488 -0.27684,0.41323 -0.4441,0.61856 -0.24092,0.29575 -0.28548,0.38555 -0.2145,0.43221 0.63579,0.41797 1.15083,0.63302 1.52105,0.63511 l 0.27127,0.001 z"
       id="path2" /></g></svg>
