<?xml version="1.0" encoding="UTF-8" standalone="no"?>
<!-- Created with Inkscape (http://www.inkscape.org/) -->

<svg
   width="200"
   height="200"
   viewBox="0 0 52.916668 52.916666"
   version="1.1"
   id="svg8"
   inkscape:version="1.3.2 (091e20e, 2023-11-25, custom)"
   sodipodi:docname="illegalist.svg"
   xml:space="preserve"
   xmlns:inkscape="http://www.inkscape.org/namespaces/inkscape"
   xmlns:sodipodi="http://sodipodi.sourceforge.net/DTD/sodipodi-0.dtd"
   xmlns="http://www.w3.org/2000/svg"
   xmlns:svg="http://www.w3.org/2000/svg"
   xmlns:rdf="http://www.w3.org/1999/02/22-rdf-syntax-ns#"
   xmlns:cc="http://creativecommons.org/ns#"
   xmlns:dc="http://purl.org/dc/elements/1.1/"><defs
     id="defs2"><inkscape:path-effect
       effect="envelope"
       id="path-effect4658"
       is_visible="true"
       yy="true"
       xx="true"
       bendpath1="m -199.08406,108.42369 h 7.0057"
       bendpath2="m -192.07836,108.42369 v 6.75242"
       bendpath3="m -199.08406,115.17611 h 7.0057"
       bendpath4="m -199.08406,108.42369 v 6.75242" /><inkscape:path-effect
       effect="bend_path"
       id="path-effect4656"
       is_visible="true"
       bendpath="m -192.00142,114.60623 c 2.12577,-0.53066 4.48261,0.85111 7.0057,0"
       prop_scale="1"
       scale_y_rel="false"
       vertical="false"
       bendpath-nodetypes="cc" /><inkscape:path-effect
       effect="bounding_box"
       id="path-effect4654"
       is_visible="true"
       linkedpath=""
       visualbounds="false" /></defs><sodipodi:namedview
     id="base"
     pagecolor="#ffffff"
     bordercolor="#666666"
     borderopacity="1.0"
     inkscape:pageopacity="0.0"
     inkscape:pageshadow="2"
     inkscape:zoom="1.7469907"
     inkscape:cx="34.917186"
     inkscape:cy="111.3343"
     inkscape:document-units="mm"
     inkscape:current-layer="layer1"
     showgrid="false"
     fit-margin-top="0"
     fit-margin-left="0"
     fit-margin-right="0"
     fit-margin-bottom="0"
     inkscape:window-width="1366"
     inkscape:window-height="705"
     inkscape:window-x="-8"
     inkscape:window-y="-8"
     inkscape:window-maximized="1"
     showguides="false"
     inkscape:object-nodes="true"
     units="px"
     inkscape:snap-page="true"
     inkscape:showpageshadow="2"
     inkscape:pagecheckerboard="0"
     inkscape:deskcolor="#d1d1d1" /><metadata
     id="metadata5"><rdf:RDF><cc:Work
         rdf:about=""><dc:format>image/svg+xml</dc:format><dc:type
           rdf:resource="http://purl.org/dc/dcmitype/StillImage" /></cc:Work></rdf:RDF></metadata><g
     inkscape:label="Layer 1"
     inkscape:groupmode="layer"
     id="layer1"
     transform="translate(249.80447,-91.409467)"><g
       style="stroke-width:0.5"
       id="g5334"
       transform="matrix(2,0,0,2,-249.80447,91.409467)"><rect
         ry="1.984375"
         rx="1.984375"
         style="opacity:1;fill:#212121;fill-opacity:1;fill-rule:nonzero;stroke:none;stroke-width:0.25;stroke-linecap:butt;stroke-linejoin:round;stroke-miterlimit:4;stroke-dasharray:none;stroke-dashoffset:0;stroke-opacity:0.90944878;paint-order:normal"
         id="rect5322"
         width="26.458334"
         height="26.458334"
         x="0"
         y="-1.110223e-16" /><rect
         ry="1.3229166"
         rx="1.3229166"
         y="1.322917"
         x="1.322917"
         height="23.8125"
         width="23.8125"
         id="rect5324"
         style="opacity:1;fill:#323133;fill-opacity:1;fill-rule:nonzero;stroke:none;stroke-width:0.25;stroke-linecap:butt;stroke-linejoin:round;stroke-miterlimit:4;stroke-dasharray:none;stroke-dashoffset:0;stroke-opacity:0.90944878;paint-order:normal"
         inkscape:label="inside" /><path
         inkscape:connector-curvature="0"
         id="path5326"
         d="m 0.72760467,18.520836 v 4.167188 c 0,1.539081 1.23904383,2.778124 2.77812503,2.778124 H 22.952604 c 1.539081,0 2.778125,-1.239043 2.778125,-2.778124 v -4.167188 z"
         style="opacity:1;fill:#222222;fill-opacity:1;fill-rule:nonzero;stroke:none;stroke-width:0.24999999;stroke-linecap:butt;stroke-linejoin:round;stroke-miterlimit:4;stroke-dasharray:none;stroke-dashoffset:0;stroke-opacity:0.90944878;paint-order:normal" /></g><text
       xml:space="preserve"
       style="font-style:normal;font-variant:normal;font-weight:500;font-stretch:normal;font-size:7.69804px;font-family:Montserrat;-inkscape-font-specification:'Montserrat Medium';fill:#faa20a;fill-opacity:1;stroke-width:0.240563"
       x="-245.01324"
       y="138.41739"
       id="text1"><tspan
         sodipodi:role="line"
         id="tspan1"
         style="font-style:normal;font-variant:normal;font-weight:600;font-stretch:normal;font-size:7.69804px;font-family:Montserrat;-inkscape-font-specification:'Montserrat Semi-Bold';fill:#f9f9f9;stroke-width:0.240563"
         x="-245.01324"
         y="138.41739">ILLEGALIST</tspan></text><path
       style="fill:#212121;fill-opacity:1;stroke-width:0.533059"
       d="m -230.14911,130.95301 c 0,-0.049 0.38499,-2.33656 0.85553,-5.08366 0.47055,-2.74708 0.83549,-5.11328 0.81098,-5.25821 -0.0245,-0.14493 -2.15262,-2.68908 -4.72912,-5.65365 l -4.68457,-5.39015 3.11309,-4.643 c 2.3781,-3.54679 3.16778,-4.62546 3.34469,-4.56868 0.12739,0.0409 2.1039,0.86247 4.39225,1.82578 l 4.16065,1.75145 -0.0446,0.8939 c -0.0245,0.49164 -0.0715,0.98909 -0.10466,1.10545 -0.033,0.11635 -0.45723,0.41605 -0.94268,0.66597 -0.8018,0.4128 -1.02103,0.4591 -2.39365,0.50553 l -1.51103,0.0511 -0.67508,-0.96162 c -0.55372,-0.78872 -0.7448,-0.962 -1.06294,-0.96389 -0.4427,-0.003 -0.44403,0.007 -0.19234,1.30697 l 0.18514,0.95665 -0.68396,0.57265 c -0.37618,0.31494 -0.68396,0.61597 -0.68396,0.66893 0,0.053 0.9044,0.39563 2.0098,0.76153 l 2.0098,0.66521 2.6957,4.19697 2.69569,4.19697 -0.77323,0.69621 c -0.42526,0.38291 -0.90845,0.80977 -1.07374,0.94859 -0.29446,0.24728 -0.2863,0.2505 0.40467,0.15934 1.25281,-0.16526 1.19604,-0.19557 1.58367,0.84582 0.19603,0.52661 0.38283,0.93107 0.41512,0.89878 0.0324,-0.0324 0.1725,-0.46315 0.31161,-0.95748 l 0.2529,-0.89879 0.86918,-0.0421 c 0.47807,-0.0231 0.86683,-0.0866 0.86394,-0.14103 -0.003,-0.0545 -0.22844,-0.25772 -0.50122,-0.45165 -0.34729,-0.24691 -1.31463,-1.6421 -3.22695,-4.65422 -1.50203,-2.36589 -2.70903,-4.32357 -2.6822,-4.3504 0.0268,-0.0268 1.3068,0.25402 2.84435,0.62413 l 2.79558,0.67293 1.53948,1.37607 1.53949,1.37607 1.04935,-0.87196 c 0.57714,-0.47959 1.40705,-1.16868 1.84426,-1.53133 0.43719,-0.36266 0.80861,-0.64566 0.82536,-0.62891 0.0757,0.0757 -0.80846,5.63844 -0.91892,5.78156 -0.0684,0.0885 -0.74641,0.95434 -1.50682,1.92398 -0.76042,0.96964 -1.43049,1.82644 -1.48902,1.90401 -0.0585,0.0775 0.0341,2.26721 0.20578,4.86585 0.17173,2.59864 0.30858,4.73189 0.30411,4.74053 -0.0357,0.0687 -14.04151,0.18011 -14.04151,0.1117 z m 12.79663,-18.64107 -0.80478,-0.81325 2.56556,-2.98204 2.56556,-2.98204 1.1702,1.06239 c 0.6436,0.5843 1.17019,1.14483 1.17019,1.24562 0,0.16528 -5.60503,5.28259 -5.78606,5.28259 -0.0418,0 -0.43804,-0.36597 -0.88067,-0.81327 z m -3.60485,-2.28499 c -0.80116,-0.29905 -1.49075,-0.57784 -1.53244,-0.61953 -0.0417,-0.0417 0.45194,-0.82479 1.09696,-1.74023 2.45521,-3.48452 4.26021,-6.0386 4.30345,-6.08942 0.0246,-0.0291 0.7772,0.53183 1.67223,1.24637 1.53765,1.22755 1.61623,1.31498 1.42601,1.58654 -0.61145,0.87298 -5.20525,6.17459 -5.34445,6.16792 -0.0908,-0.004 -0.82061,-0.2526 -1.62176,-0.55165 z m -4.50316,-0.82204 c -0.48531,-0.19583 -0.86189,-0.37656 -0.83683,-0.40161 0.1155,-0.1155 3.26247,-1.02224 3.32631,-0.95842 0.0397,0.0397 -0.30562,0.44211 -0.76742,0.89415 l -0.83965,0.82191 z m 3.94927,-4.80734 0.036,-0.88735 -1.50272,-0.77769 -1.50271,-0.7777 1.2648,-2.101418 c 0.69564,-1.15579 1.31287,-2.101428 1.37163,-2.101428 0.30698,0 3.75181,1.986201 3.73824,2.155361 -0.0136,0.170255 -2.99805,4.882095 -3.32073,5.242855 -0.0677,0.0758 -0.10477,-0.25379 -0.0845,-0.75263 z m -6.63752,-4.18728 c -1.033,-0.496831 -1.85163,-0.95173 -1.81918,-1.010886 0.0324,-0.0592 0.70686,-1.168713 1.49868,-2.465687 l 1.43968,-2.358137 1.15522,0.721588 c 2.16989,1.355375 2.63613,1.664066 2.63613,1.745328 0,0.04471 -0.58206,1.029242 -1.29347,2.187846 -0.8176,1.331578 -1.3754,2.102288 -1.51617,2.094918 -0.12248,-0.007 -1.06787,-0.41814 -2.10089,-0.91497 z"
       id="path2" /></g></svg>
