<?xml version="1.0" encoding="UTF-8" standalone="no"?>
<!-- Created with Inkscape (http://www.inkscape.org/) -->

<svg
   width="200"
   height="200"
   viewBox="0 0 52.916668 52.916666"
   version="1.1"
   id="svg8"
   inkscape:version="1.3.2 (091e20e, 2023-11-25, custom)"
   sodipodi:docname="industrial.svg"
   xml:space="preserve"
   xmlns:inkscape="http://www.inkscape.org/namespaces/inkscape"
   xmlns:sodipodi="http://sodipodi.sourceforge.net/DTD/sodipodi-0.dtd"
   xmlns="http://www.w3.org/2000/svg"
   xmlns:svg="http://www.w3.org/2000/svg"
   xmlns:rdf="http://www.w3.org/1999/02/22-rdf-syntax-ns#"
   xmlns:cc="http://creativecommons.org/ns#"
   xmlns:dc="http://purl.org/dc/elements/1.1/"><defs
     id="defs2"><inkscape:path-effect
       effect="envelope"
       id="path-effect4658"
       is_visible="true"
       yy="true"
       xx="true"
       bendpath1="m -199.08406,108.42369 h 7.0057"
       bendpath2="m -192.07836,108.42369 v 6.75242"
       bendpath3="m -199.08406,115.17611 h 7.0057"
       bendpath4="m -199.08406,108.42369 v 6.75242" /><inkscape:path-effect
       effect="bend_path"
       id="path-effect4656"
       is_visible="true"
       bendpath="m -192.00142,114.60623 c 2.12577,-0.53066 4.48261,0.85111 7.0057,0"
       prop_scale="1"
       scale_y_rel="false"
       vertical="false"
       bendpath-nodetypes="cc" /><inkscape:path-effect
       effect="bounding_box"
       id="path-effect4654"
       is_visible="true"
       linkedpath=""
       visualbounds="false" /></defs><sodipodi:namedview
     id="base"
     pagecolor="#ffffff"
     bordercolor="#666666"
     borderopacity="1.0"
     inkscape:pageopacity="0.0"
     inkscape:pageshadow="2"
     inkscape:zoom="1.7469907"
     inkscape:cx="107.61362"
     inkscape:cy="115.91361"
     inkscape:document-units="mm"
     inkscape:current-layer="g5334"
     showgrid="false"
     fit-margin-top="0"
     fit-margin-left="0"
     fit-margin-right="0"
     fit-margin-bottom="0"
     inkscape:window-width="1366"
     inkscape:window-height="705"
     inkscape:window-x="-8"
     inkscape:window-y="-8"
     inkscape:window-maximized="1"
     showguides="false"
     inkscape:object-nodes="true"
     units="px"
     inkscape:snap-page="true"
     inkscape:showpageshadow="2"
     inkscape:pagecheckerboard="0"
     inkscape:deskcolor="#d1d1d1" /><metadata
     id="metadata5"><rdf:RDF><cc:Work
         rdf:about=""><dc:format>image/svg+xml</dc:format><dc:type
           rdf:resource="http://purl.org/dc/dcmitype/StillImage" /></cc:Work></rdf:RDF></metadata><g
     inkscape:label="Layer 1"
     inkscape:groupmode="layer"
     id="layer1"
     transform="translate(249.80447,-91.409467)"><g
       style="stroke-width:0.5"
       id="g5334"
       transform="matrix(2,0,0,2,-249.80447,91.409467)"><rect
         ry="1.984375"
         rx="1.984375"
         style="opacity:1;fill:#212121;fill-opacity:1;fill-rule:nonzero;stroke:none;stroke-width:0.25;stroke-linecap:butt;stroke-linejoin:round;stroke-miterlimit:4;stroke-dasharray:none;stroke-dashoffset:0;stroke-opacity:0.90944878;paint-order:normal"
         id="rect5322"
         width="26.458334"
         height="26.458334"
         x="0"
         y="-1.110223e-16" /><rect
         ry="1.3229166"
         rx="1.3229166"
         y="1.322917"
         x="1.322917"
         height="23.8125"
         width="23.8125"
         id="rect5324"
         style="opacity:1;fill:#615666;fill-opacity:1;fill-rule:nonzero;stroke:none;stroke-width:0.25;stroke-linecap:butt;stroke-linejoin:round;stroke-miterlimit:4;stroke-dasharray:none;stroke-dashoffset:0;stroke-opacity:0.90944878;paint-order:normal"
         inkscape:label="inside" /><path
         inkscape:connector-curvature="0"
         id="path5326"
         d="m 0.72760467,18.520836 v 4.167188 c 0,1.539081 1.23904383,2.778124 2.77812503,2.778124 H 22.952604 c 1.539081,0 2.778125,-1.239043 2.778125,-2.778124 v -4.167188 z"
         style="opacity:1;fill:#222222;fill-opacity:1;fill-rule:nonzero;stroke:none;stroke-width:0.24999999;stroke-linecap:butt;stroke-linejoin:round;stroke-miterlimit:4;stroke-dasharray:none;stroke-dashoffset:0;stroke-opacity:0.90944878;paint-order:normal" /><path
         style="fill:#212121;fill-opacity:1"
         d="M 2.1829992,18.346778 V 17.76233 h 0.787734 0.787733 v -3.379631 -3.379631 h 5.8698861 5.8698847 v 3.379631 3.379631 h 0.152465 0.152464 v -3.53369 c 0,-3.094176 -0.0095,-3.53733 -0.07623,-3.562944 -0.06494,-0.02492 -0.07623,-0.216894 -0.07623,-1.296074 V 8.1028019 l 0.543023,0.014425 0.543024,0.014425 0.498818,0.7843665 0.498817,0.7843665 v 4.0309731 4.030972 h 0.228697 0.228696 V 12.934286 8.1062406 l 0.546332,0.00126 0.546331,0.00126 0.49551,0.7902637 0.49551,0.7902637 v 4.03652 4.03652 h 0.508215 0.508215 v 0.584448 0.584447 H 11.737445 2.1829992 Z M 14.278521,15.297487 V 14.865504 H 9.6283523 4.9781832 v 0.431983 0.431983 h 4.6501691 4.6501687 z m 0,-2.109094 V 12.781821 H 9.6283523 4.9781832 v 0.406572 0.406573 H 9.6283523 14.278521 Z M 4.5207892,10.342388 v -0.304929 h 0.529969 0.529969 l 0.0288,-0.2668135 c 0.02546,-0.2358975 0.28436,-5.0591987 0.2837,-5.2854383 -1.89e-4,-0.064881 -0.0415,-0.088938 -0.152723,-0.088938 H 5.5880412 V 4.0913404 3.7864113 h 0.940198 0.940198 v 0.3049291 0.3049292 h -0.152464 c -0.08386,0 -0.152465,0.02627 -0.152465,0.058378 0,0.161744 0.257338,4.8970691 0.28337,5.2143548 l 0.03023,0.3684566 h 0.52929 0.52929 v 0.304929 0.304929 h -2.00745 -2.00745 z M 10.517728,9.3767787 V 8.1062406 h 0.554433 0.554433 l 0.487408,0.7734225 0.487409,0.7734224 v 0.4971155 0.497116 h -1.041842 -1.041841 z m 2.591898,0 V 8.1062406 h 0.529188 0.529188 l 0.487242,0.7631976 0.487242,0.7631976 v 0.5073402 0.507341 h -1.01643 -1.01643 z"
         id="path2" /></g><text
       xml:space="preserve"
       style="font-style:normal;font-variant:normal;font-weight:500;font-stretch:normal;font-size:7.69804px;font-family:Montserrat;-inkscape-font-specification:'Montserrat Medium';fill:#faa20a;fill-opacity:1;stroke-width:0.240563"
       x="-247.89084"
       y="138.26595"
       id="text1"><tspan
         sodipodi:role="line"
         id="tspan1"
         style="font-style:normal;font-variant:normal;font-weight:600;font-stretch:normal;font-size:7.69804px;font-family:Montserrat;-inkscape-font-specification:'Montserrat Semi-Bold';fill:#f9f9f9;stroke-width:0.240563"
         x="-247.89084"
         y="138.26595">INDUSTRIAL</tspan></text></g></svg>
