<?xml version="1.0" encoding="UTF-8" standalone="no"?>
<!-- Created with Inkscape (http://www.inkscape.org/) -->

<svg
   width="200"
   height="200"
   viewBox="0 0 52.916668 52.916666"
   version="1.1"
   id="svg8"
   inkscape:version="1.3.2 (091e20e, 2023-11-25, custom)"
   sodipodi:docname="legalists.svg"
   xml:space="preserve"
   xmlns:inkscape="http://www.inkscape.org/namespaces/inkscape"
   xmlns:sodipodi="http://sodipodi.sourceforge.net/DTD/sodipodi-0.dtd"
   xmlns="http://www.w3.org/2000/svg"
   xmlns:svg="http://www.w3.org/2000/svg"
   xmlns:rdf="http://www.w3.org/1999/02/22-rdf-syntax-ns#"
   xmlns:cc="http://creativecommons.org/ns#"
   xmlns:dc="http://purl.org/dc/elements/1.1/"><defs
     id="defs2"><inkscape:path-effect
       effect="envelope"
       id="path-effect4658"
       is_visible="true"
       yy="true"
       xx="true"
       bendpath1="m -199.08406,108.42369 h 7.0057"
       bendpath2="m -192.07836,108.42369 v 6.75242"
       bendpath3="m -199.08406,115.17611 h 7.0057"
       bendpath4="m -199.08406,108.42369 v 6.75242" /><inkscape:path-effect
       effect="bend_path"
       id="path-effect4656"
       is_visible="true"
       bendpath="m -192.00142,114.60623 c 2.12577,-0.53066 4.48261,0.85111 7.0057,0"
       prop_scale="1"
       scale_y_rel="false"
       vertical="false"
       bendpath-nodetypes="cc" /><inkscape:path-effect
       effect="bounding_box"
       id="path-effect4654"
       is_visible="true"
       linkedpath=""
       visualbounds="false" /></defs><sodipodi:namedview
     id="base"
     pagecolor="#ffffff"
     bordercolor="#666666"
     borderopacity="1.0"
     inkscape:pageopacity="0.0"
     inkscape:pageshadow="2"
     inkscape:zoom="1.7469907"
     inkscape:cx="87.006757"
     inkscape:cy="138.81012"
     inkscape:document-units="mm"
     inkscape:current-layer="layer1"
     showgrid="false"
     fit-margin-top="0"
     fit-margin-left="0"
     fit-margin-right="0"
     fit-margin-bottom="0"
     inkscape:window-width="1366"
     inkscape:window-height="705"
     inkscape:window-x="-8"
     inkscape:window-y="-8"
     inkscape:window-maximized="1"
     showguides="false"
     inkscape:object-nodes="true"
     units="px"
     inkscape:snap-page="true"
     inkscape:showpageshadow="2"
     inkscape:pagecheckerboard="0"
     inkscape:deskcolor="#d1d1d1" /><metadata
     id="metadata5"><rdf:RDF><cc:Work
         rdf:about=""><dc:format>image/svg+xml</dc:format><dc:type
           rdf:resource="http://purl.org/dc/dcmitype/StillImage" /></cc:Work></rdf:RDF></metadata><g
     inkscape:label="Layer 1"
     inkscape:groupmode="layer"
     id="layer1"
     transform="translate(249.80447,-91.409467)"><g
       style="stroke-width:0.5"
       id="g5334"
       transform="matrix(2,0,0,2,-249.80447,91.409467)"><rect
         ry="1.984375"
         rx="1.984375"
         style="opacity:1;fill:#212121;fill-opacity:1;fill-rule:nonzero;stroke:none;stroke-width:0.25;stroke-linecap:butt;stroke-linejoin:round;stroke-miterlimit:4;stroke-dasharray:none;stroke-dashoffset:0;stroke-opacity:0.90944878;paint-order:normal"
         id="rect5322"
         width="26.458334"
         height="26.458334"
         x="0"
         y="-1.110223e-16" /><rect
         ry="1.3229166"
         rx="1.3229166"
         y="1.322917"
         x="1.322917"
         height="23.8125"
         width="23.8125"
         id="rect5324"
         style="opacity:1;fill:#d4ccdb;fill-opacity:1;fill-rule:nonzero;stroke:none;stroke-width:0.25;stroke-linecap:butt;stroke-linejoin:round;stroke-miterlimit:4;stroke-dasharray:none;stroke-dashoffset:0;stroke-opacity:0.90944878;paint-order:normal"
         inkscape:label="inside" /><path
         inkscape:connector-curvature="0"
         id="path5326"
         d="m 0.72760467,18.520836 v 4.167188 c 0,1.539081 1.23904383,2.778124 2.77812503,2.778124 H 22.952604 c 1.539081,0 2.778125,-1.239043 2.778125,-2.778124 v -4.167188 z"
         style="opacity:1;fill:#222222;fill-opacity:1;fill-rule:nonzero;stroke:none;stroke-width:0.24999999;stroke-linecap:butt;stroke-linejoin:round;stroke-miterlimit:4;stroke-dasharray:none;stroke-dashoffset:0;stroke-opacity:0.90944878;paint-order:normal" /></g><text
       xml:space="preserve"
       style="font-style:normal;font-variant:normal;font-weight:500;font-stretch:normal;font-size:7.69804px;font-family:Montserrat;-inkscape-font-specification:'Montserrat Medium';fill:#faa20a;fill-opacity:1;stroke-width:0.240563"
       x="-241.98422"
       y="138.11449"
       id="text1"><tspan
         sodipodi:role="line"
         id="tspan1"
         style="font-style:normal;font-variant:normal;font-weight:600;font-stretch:normal;font-size:7.69804px;font-family:Montserrat;-inkscape-font-specification:'Montserrat Semi-Bold';fill:#f9f9f9;stroke-width:0.240563"
         x="-241.98422"
         y="138.11449">LEGALIST</tspan></text><path
       style="fill:#212121;stroke-width:0.292497;fill-opacity:1"
       d="m -232.08111,131.41149 c -0.0286,-0.0286 -0.0519,-0.21391 -0.0519,-0.41191 0,-1.25176 0.84352,-2.09067 2.10217,-2.09067 h 0.44943 l 0.85355,-1.27694 0.85356,-1.27693 h 1.2371 1.23712 v -11.18286 -11.18286 h -3.79212 c -3.7271,0 -3.79211,0.002 -3.79211,0.15316 0,0.0842 -0.0726,0.37443 -0.16141,0.64487 l -0.16142,0.49171 1.78661,3.57257 c 0.98263,1.9649 1.7866,3.59011 1.7866,3.61157 0,0.0215 -0.62927,0.0391 -1.39837,0.0391 h -1.39839 l -1.47064,-2.97952 c -0.80887,-1.63873 -1.48826,-2.97951 -1.50979,-2.97951 -0.0216,0 -0.69762,1.34078 -1.50244,2.97951 l -1.4633,2.97952 h -1.39409 c -0.76675,0 -1.39408,-0.0118 -1.39408,-0.0262 0,-0.0144 0.7977,-1.6449 1.77268,-3.62333 l 1.77268,-3.59714 -0.15572,-0.45899 c -0.50725,-1.49501 0.48175,-3.11821 2.02712,-3.32701 0.19184,-0.0259 2.28603,-0.42729 4.65376,-0.89191 2.36774,-0.46463 4.34409,-0.844776 4.39189,-0.844776 0.0554,0 0.0869,0.18255 0.0869,0.503026 v 0.50304 h 3.86951 3.86949 v -0.50304 c 0,-0.430386 0.0199,-0.503026 0.13752,-0.503026 0.0756,0 1.96493,0.366446 4.19841,0.814326 2.23349,0.44788 4.30364,0.84934 4.60034,0.89213 0.99774,0.14388 1.69681,0.61659 2.11161,1.42784 0.27722,0.54219 0.32175,1.31061 0.1118,1.9294 l -0.15572,0.45899 1.77268,3.59714 c 0.97498,1.97843 1.77268,3.60893 1.77268,3.62333 0,0.0144 -0.62771,0.0262 -1.39493,0.0262 h -1.39492 l -1.46261,-2.97952 c -0.80445,-1.63873 -1.48016,-2.97951 -1.5016,-2.97951 -0.0215,0 -0.70078,1.34078 -1.50964,2.97951 l -1.47065,2.97952 h -1.39837 c -0.76911,0 -1.39839,-0.0176 -1.39839,-0.0391 0,-0.0215 0.80398,-1.64667 1.78661,-3.61157 l 1.78661,-3.57257 -0.16142,-0.49171 c -0.0888,-0.27044 -0.16141,-0.56063 -0.16141,-0.64487 0,-0.15053 -0.0651,-0.15316 -3.79211,-0.15316 h -3.79212 v 11.18286 11.18286 h 1.23712 1.2371 l 0.85356,1.27693 0.85354,1.27694 h 0.44943 c 1.28047,0 2.16613,0.90965 2.08723,2.14379 l -0.0238,0.37138 -9.21555,0.0197 c -5.06855,0.0108 -9.23891,-0.003 -9.26745,-0.0323 z m -4.34705,-10.39994 c -1.54043,-0.2383 -3.19821,-1.13195 -4.11312,-2.21724 -1.00428,-1.19131 -1.65243,-2.77772 -1.65243,-4.04451 v -0.39021 h 6.69423 6.69424 v 0.34145 c 0,0.18779 -0.0494,0.59929 -0.10963,0.91444 -0.4827,2.52283 -2.44443,4.6045 -4.93805,5.23995 -0.71369,0.18187 -1.9315,0.2557 -2.57524,0.15612 z m 25.34992,0.002 c -2.83457,-0.39541 -5.16435,-2.602 -5.69931,-5.39795 -0.0603,-0.31515 -0.10963,-0.72665 -0.10963,-0.91444 v -0.34145 h 6.69423 6.69424 v 0.39021 c 0,1.70451 -1.07975,3.75638 -2.58016,4.90312 -1.3982,1.06863 -3.32766,1.5937 -4.99937,1.36051 z m -14.30482,-23.041176 c 0.0406,-1.74759 0.14273,-2.10882 0.77098,-2.72724 1.19848,-1.17973 3.27786,-0.85569 3.99334,0.6223 0.25336,0.52334 0.3264,1.05306 0.3264,2.36702 v 1.18899 h -2.56222 -2.56221 z"
       id="path2" /></g></svg>
