<?xml version="1.0" encoding="UTF-8" standalone="no"?>
<!-- Created with Inkscape (http://www.inkscape.org/) -->

<svg
   width="200"
   height="200"
   viewBox="0 0 52.916668 52.916666"
   version="1.1"
   id="svg8"
   inkscape:version="1.3.2 (091e20e, 2023-11-25, custom)"
   sodipodi:docname="markets.svg"
   xml:space="preserve"
   xmlns:inkscape="http://www.inkscape.org/namespaces/inkscape"
   xmlns:sodipodi="http://sodipodi.sourceforge.net/DTD/sodipodi-0.dtd"
   xmlns="http://www.w3.org/2000/svg"
   xmlns:svg="http://www.w3.org/2000/svg"
   xmlns:rdf="http://www.w3.org/1999/02/22-rdf-syntax-ns#"
   xmlns:cc="http://creativecommons.org/ns#"
   xmlns:dc="http://purl.org/dc/elements/1.1/"><defs
     id="defs2"><inkscape:path-effect
       effect="envelope"
       id="path-effect4658"
       is_visible="true"
       yy="true"
       xx="true"
       bendpath1="m -199.08406,108.42369 h 7.0057"
       bendpath2="m -192.07836,108.42369 v 6.75242"
       bendpath3="m -199.08406,115.17611 h 7.0057"
       bendpath4="m -199.08406,108.42369 v 6.75242" /><inkscape:path-effect
       effect="bend_path"
       id="path-effect4656"
       is_visible="true"
       bendpath="m -192.00142,114.60623 c 2.12577,-0.53066 4.48261,0.85111 7.0057,0"
       prop_scale="1"
       scale_y_rel="false"
       vertical="false"
       bendpath-nodetypes="cc" /><inkscape:path-effect
       effect="bounding_box"
       id="path-effect4654"
       is_visible="true"
       linkedpath=""
       visualbounds="false" /></defs><sodipodi:namedview
     id="base"
     pagecolor="#ffffff"
     bordercolor="#666666"
     borderopacity="1.0"
     inkscape:pageopacity="0.0"
     inkscape:pageshadow="2"
     inkscape:zoom="1.8648858"
     inkscape:cx="98.129333"
     inkscape:cy="112.33932"
     inkscape:document-units="mm"
     inkscape:current-layer="layer1"
     showgrid="false"
     fit-margin-top="0"
     fit-margin-left="0"
     fit-margin-right="0"
     fit-margin-bottom="0"
     inkscape:window-width="1366"
     inkscape:window-height="705"
     inkscape:window-x="-8"
     inkscape:window-y="-8"
     inkscape:window-maximized="1"
     showguides="false"
     inkscape:object-nodes="true"
     units="px"
     inkscape:snap-page="true"
     inkscape:showpageshadow="2"
     inkscape:pagecheckerboard="0"
     inkscape:deskcolor="#d1d1d1" /><metadata
     id="metadata5"><rdf:RDF><cc:Work
         rdf:about=""><dc:format>image/svg+xml</dc:format><dc:type
           rdf:resource="http://purl.org/dc/dcmitype/StillImage" /></cc:Work></rdf:RDF></metadata><g
     inkscape:label="Layer 1"
     inkscape:groupmode="layer"
     id="layer1"
     transform="translate(249.80447,-91.409467)"><g
       style="stroke-width:0.5"
       id="g5334"
       transform="matrix(2,0,0,2,-249.80447,91.409467)"><rect
         ry="1.984375"
         rx="1.984375"
         style="opacity:1;fill:#212121;fill-opacity:1;fill-rule:nonzero;stroke:none;stroke-width:0.25;stroke-linecap:butt;stroke-linejoin:round;stroke-miterlimit:4;stroke-dasharray:none;stroke-dashoffset:0;stroke-opacity:0.90944878;paint-order:normal"
         id="rect5322"
         width="26.458334"
         height="26.458334"
         x="0"
         y="-1.110223e-16" /><rect
         ry="1.3229166"
         rx="1.3229166"
         y="1.322917"
         x="1.322917"
         height="23.8125"
         width="23.8125"
         id="rect5324"
         style="opacity:1;fill:#2a4bad;fill-opacity:1;fill-rule:nonzero;stroke:none;stroke-width:0.25;stroke-linecap:butt;stroke-linejoin:round;stroke-miterlimit:4;stroke-dasharray:none;stroke-dashoffset:0;stroke-opacity:0.90944878;paint-order:normal"
         inkscape:label="inside" /><path
         inkscape:connector-curvature="0"
         id="path5326"
         d="m 0.72760467,18.520836 v 4.167188 c 0,1.539081 1.23904383,2.778124 2.77812503,2.778124 H 22.952604 c 1.539081,0 2.778125,-1.239043 2.778125,-2.778124 v -4.167188 z"
         style="opacity:1;fill:#222222;fill-opacity:1;fill-rule:nonzero;stroke:none;stroke-width:0.24999999;stroke-linecap:butt;stroke-linejoin:round;stroke-miterlimit:4;stroke-dasharray:none;stroke-dashoffset:0;stroke-opacity:0.90944878;paint-order:normal" /></g><text
       xml:space="preserve"
       style="font-style:normal;font-variant:normal;font-weight:500;font-stretch:normal;font-size:7.69804px;font-family:Montserrat;-inkscape-font-specification:'Montserrat Medium';fill:#faa20a;fill-opacity:1;stroke-width:0.240563"
       x="-243.2653"
       y="138.40781"
       id="text1"><tspan
         sodipodi:role="line"
         id="tspan1"
         style="font-style:normal;font-variant:normal;font-weight:600;font-stretch:normal;font-size:7.69804px;font-family:Montserrat;-inkscape-font-specification:'Montserrat Semi-Bold';fill:#f9f9f9;stroke-width:0.240563"
         x="-243.2653"
         y="138.40781">MARKETS</tspan></text><path
       style="fill:#212121;stroke-width:0.289984;fill-opacity:1"
       d="m -238.17342,127.96263 c -0.5433,-0.2466 -0.84589,-0.52931 -1.09052,-1.01885 l -0.2325,-0.46528 v -6.89539 c 0,-6.49951 0.008,-6.89787 0.13427,-6.9384 0.44028,-0.14101 1.265,-0.60866 1.61122,-0.91361 l 0.40281,-0.35479 v 2.9215 2.92149 h 14.19411 14.1941 v -2.92149 -2.9215 l 0.40281,0.35479 c 0.34622,0.30495 1.17094,0.7726 1.61122,0.91361 0.12656,0.0405 0.13427,0.43889 0.13427,6.9384 v 6.89539 l -0.2325,0.46528 c -0.24463,0.48954 -0.54722,0.77225 -1.09051,1.01885 -0.3191,0.14484 -0.66282,0.14824 -15.01939,0.14824 -14.35658,0 -14.70029,-0.003 -15.01939,-0.14824 z m -3.07699,-15.66503 c -0.56156,-0.1616 -1.02528,-0.55979 -1.32709,-1.13956 -0.17264,-0.33163 -0.18069,-0.42281 -0.20355,-2.30799 -0.0255,-2.10854 -0.0435,-1.95686 0.45296,-3.84919 l 0.0755,-0.28772 h 19.10058 19.10058 l 0.27336,0.54283 0.27336,0.54282 -0.023,2.50699 c -0.0226,2.45569 -0.0267,2.51406 -0.20238,2.85226 -0.82555,1.58944 -3.03251,1.62776 -3.8858,0.0675 -0.21332,-0.39007 -0.22813,-0.4759 -0.26983,-1.5636 -0.0416,-1.08517 -0.0569,-1.17423 -0.26787,-1.56003 -0.69401,-1.26897 -2.30755,-1.54489 -3.34724,-0.57239 -0.58889,0.55085 -0.69629,0.86469 -0.756,2.20915 -0.0591,1.33023 -0.14619,1.57905 -0.73398,2.09645 -1.12211,0.98772 -2.86996,0.58163 -3.46275,-0.80454 -0.0873,-0.2042 -0.14033,-0.63557 -0.17289,-1.40701 -0.0549,-1.29956 -0.17345,-1.63814 -0.75242,-2.14778 -0.82594,-0.72701 -2.01239,-0.70925 -2.84869,0.0427 -0.57719,0.51895 -0.71212,0.91287 -0.77363,2.25858 -0.0563,1.23132 -0.14325,1.50502 -0.6313,1.98649 -0.462,0.45577 -0.79189,0.58195 -1.52148,0.58195 -0.72959,0 -1.05948,-0.12618 -1.52147,-0.58195 -0.48806,-0.48147 -0.57504,-0.75517 -0.63131,-1.98649 -0.0615,-1.34571 -0.19643,-1.73963 -0.77363,-2.25858 -0.8363,-0.75191 -2.02275,-0.76967 -2.84869,-0.0427 -0.57897,0.50964 -0.69759,0.84822 -0.75242,2.14778 -0.0506,1.20112 -0.12477,1.48173 -0.52444,1.98636 -0.50951,0.64331 -1.55344,0.93693 -2.36858,0.66617 -0.46885,-0.15572 -1.03761,-0.63812 -1.26133,-1.06982 -0.13706,-0.26447 -0.17258,-0.50667 -0.21527,-1.46761 -0.0597,-1.34446 -0.1671,-1.6583 -0.756,-2.20915 -0.68499,-0.64072 -1.64187,-0.76296 -2.4651,-0.3149 -0.43567,0.23713 -0.68897,0.50189 -0.93808,0.98061 -0.13844,0.26602 -0.17158,0.49735 -0.2102,1.46671 -0.0431,1.08291 -0.059,1.17499 -0.26923,1.55932 -0.49119,0.89813 -1.58387,1.35746 -2.56063,1.07638 z m -0.9314,-8.08923 c 0,-0.0915 4.10614,-5.920356 4.48117,-6.361309 0.49749,-0.584921 0.70089,-0.769438 1.08139,-0.981007 l 0.30689,-0.170658 h 13.11997 13.11995 l 0.36193,0.167204 c 0.53006,0.244882 1.06154,0.782604 1.68355,1.703353 0.30275,0.44815 1.30425,1.890837 2.22557,3.205957 0.92132,1.31514 1.67513,2.41135 1.67513,2.43602 0,0.0247 -8.5625,0.0449 -19.02777,0.0449 -10.46528,0 -19.02778,-0.02 -19.02778,-0.0444 z"
       id="path2" /></g></svg>
