<?xml version="1.0" encoding="UTF-8" standalone="no"?>
<!-- Created with Inkscape (http://www.inkscape.org/) -->

<svg
   width="200"
   height="200"
   viewBox="0 0 52.916668 52.916666"
   version="1.1"
   id="svg8"
   inkscape:version="1.3.2 (091e20e, 2023-11-25, custom)"
   sodipodi:docname="order.svg"
   xml:space="preserve"
   xmlns:inkscape="http://www.inkscape.org/namespaces/inkscape"
   xmlns:sodipodi="http://sodipodi.sourceforge.net/DTD/sodipodi-0.dtd"
   xmlns="http://www.w3.org/2000/svg"
   xmlns:svg="http://www.w3.org/2000/svg"
   xmlns:rdf="http://www.w3.org/1999/02/22-rdf-syntax-ns#"
   xmlns:cc="http://creativecommons.org/ns#"
   xmlns:dc="http://purl.org/dc/elements/1.1/"><defs
     id="defs2"><inkscape:path-effect
       effect="envelope"
       id="path-effect4658"
       is_visible="true"
       yy="true"
       xx="true"
       bendpath1="m -199.08406,108.42369 h 7.0057"
       bendpath2="m -192.07836,108.42369 v 6.75242"
       bendpath3="m -199.08406,115.17611 h 7.0057"
       bendpath4="m -199.08406,108.42369 v 6.75242" /><inkscape:path-effect
       effect="bend_path"
       id="path-effect4656"
       is_visible="true"
       bendpath="m -192.00142,114.60623 c 2.12577,-0.53066 4.48261,0.85111 7.0057,0"
       prop_scale="1"
       scale_y_rel="false"
       vertical="false"
       bendpath-nodetypes="cc" /><inkscape:path-effect
       effect="bounding_box"
       id="path-effect4654"
       is_visible="true"
       linkedpath=""
       visualbounds="false" /></defs><sodipodi:namedview
     id="base"
     pagecolor="#ffffff"
     bordercolor="#666666"
     borderopacity="1.0"
     inkscape:pageopacity="0.0"
     inkscape:pageshadow="2"
     inkscape:zoom="1.235309"
     inkscape:cx="53.427928"
     inkscape:cy="71.641994"
     inkscape:document-units="mm"
     inkscape:current-layer="layer1"
     showgrid="false"
     fit-margin-top="0"
     fit-margin-left="0"
     fit-margin-right="0"
     fit-margin-bottom="0"
     inkscape:window-width="1366"
     inkscape:window-height="705"
     inkscape:window-x="-8"
     inkscape:window-y="-8"
     inkscape:window-maximized="1"
     showguides="false"
     inkscape:object-nodes="true"
     units="px"
     inkscape:snap-page="true"
     inkscape:showpageshadow="2"
     inkscape:pagecheckerboard="0"
     inkscape:deskcolor="#d1d1d1" /><metadata
     id="metadata5"><rdf:RDF><cc:Work
         rdf:about=""><dc:format>image/svg+xml</dc:format><dc:type
           rdf:resource="http://purl.org/dc/dcmitype/StillImage" /></cc:Work></rdf:RDF></metadata><g
     inkscape:label="Layer 1"
     inkscape:groupmode="layer"
     id="layer1"
     transform="translate(249.80447,-91.409467)"><g
       style="stroke-width:0.5"
       id="g5334"
       transform="matrix(2,0,0,2,-249.80447,91.409467)"><rect
         ry="1.984375"
         rx="1.984375"
         style="opacity:1;fill:#212121;fill-opacity:1;fill-rule:nonzero;stroke:none;stroke-width:0.25;stroke-linecap:butt;stroke-linejoin:round;stroke-miterlimit:4;stroke-dasharray:none;stroke-dashoffset:0;stroke-opacity:0.90944878;paint-order:normal"
         id="rect5322"
         width="26.458334"
         height="26.458334"
         x="0"
         y="-1.110223e-16" /><rect
         ry="1.3229166"
         rx="1.3229166"
         y="1.322917"
         x="1.322917"
         height="23.8125"
         width="23.8125"
         id="rect5324"
         style="opacity:1;fill:#3f51b5;fill-opacity:1;fill-rule:nonzero;stroke:none;stroke-width:0.25;stroke-linecap:butt;stroke-linejoin:round;stroke-miterlimit:4;stroke-dasharray:none;stroke-dashoffset:0;stroke-opacity:0.90944878;paint-order:normal"
         inkscape:label="inside" /><path
         inkscape:connector-curvature="0"
         id="path5326"
         d="m 0.72760467,18.520836 v 4.167188 c 0,1.539081 1.23904383,2.778124 2.77812503,2.778124 H 22.952604 c 1.539081,0 2.778125,-1.239043 2.778125,-2.778124 v -4.167188 z"
         style="opacity:1;fill:#222222;fill-opacity:1;fill-rule:nonzero;stroke:none;stroke-width:0.24999999;stroke-linecap:butt;stroke-linejoin:round;stroke-miterlimit:4;stroke-dasharray:none;stroke-dashoffset:0;stroke-opacity:0.90944878;paint-order:normal" /></g><text
       xml:space="preserve"
       style="font-style:normal;font-variant:normal;font-weight:500;font-stretch:normal;font-size:7.69804px;font-family:Montserrat;-inkscape-font-specification:'Montserrat Medium';fill:#faa20a;fill-opacity:1;stroke-width:0.240563"
       x="-238.13338"
       y="138.41739"
       id="text1"><tspan
         sodipodi:role="line"
         id="tspan1"
         style="font-style:normal;font-variant:normal;font-weight:600;font-stretch:normal;font-size:7.69804px;font-family:Montserrat;-inkscape-font-specification:'Montserrat Semi-Bold';fill:#f9f9f9;stroke-width:0.240563"
         x="-238.13338"
         y="138.41739">ORDER</tspan></text><path
       style="fill:#212121;stroke-width:0.165743;fill-opacity:1"
       d="m -245.60713,130.58516 c -0.73789,-0.19293 -1.45165,-0.77724 -1.79146,-1.46655 -0.41428,-0.84036 -0.41507,-1.69354 -0.002,-2.54292 l 0.1811,-0.37275 6.0139,-6.01374 c 6.55014,-6.54996 6.192,-6.21705 6.89781,-6.4118 0.60661,-0.16737 1.13416,-0.16093 1.66814,0.0204 l 0.20236,0.0687 1.16617,-1.16617 1.16616,-1.16616 -1.60251,-1.60251 -1.60252,-1.60252 -0.28672,0.13418 c -1.32169,0.61848 -2.93152,0.0366 -3.56761,-1.28956 -0.22183,-0.46246 -0.28605,-0.73276 -0.28516,-1.20007 6.9e-4,-0.4177 0.0871,-0.7953 0.27009,-1.18163 0.13138,-0.27739 0.39129,-0.5478 4.08404,-4.24895 3.04565,-3.052586 4.00496,-3.989033 4.21264,-4.112243 1.10721,-0.656859 2.56163,-0.38394 3.43341,0.644273 0.66638,0.785953 0.82002,1.986528 0.36958,2.887926 l -0.12355,0.247264 4.21911,4.21894 4.2191,4.21894 0.21691,-0.10991 c 0.96555,-0.48928 2.20373,-0.30437 3.00956,0.44945 0.37236,0.34832 0.58584,0.67279 0.75085,1.14122 0.11512,0.3268 0.13227,0.43634 0.13418,0.85707 0.003,0.59575 -0.11046,0.98525 -0.41985,1.44494 -0.14992,0.22274 -1.28467,1.38269 -4.05904,4.14918 -3.30532,3.29594 -3.88929,3.8599 -4.12154,3.98037 -0.38632,0.20036 -0.58495,0.2626 -1.00442,0.31473 -1.30353,0.16198 -2.59624,-0.74021 -2.93145,-2.0459 -0.0849,-0.33049 -0.0895,-1.00972 -0.009,-1.31205 0.0325,-0.12213 0.1146,-0.34566 0.18239,-0.49673 l 0.12326,-0.27466 -1.61163,-1.60821 -1.61164,-1.60821 -1.28969,1.31559 -1.28969,1.31558 -0.001,0.30697 c -0.002,0.43641 -0.10357,0.86317 -0.30866,1.29366 l -0.17758,0.37275 -6.03865,6.03337 c -5.86753,5.8624 -6.04797,6.03792 -6.36755,6.19383 -0.18089,0.0883 -0.44651,0.19024 -0.59026,0.22662 -0.32998,0.0835 -1.10282,0.0821 -1.42696,-0.003 z"
       id="path2" /></g></svg>
