<?xml version="1.0" encoding="UTF-8" standalone="no"?>
<!-- Created with Inkscape (http://www.inkscape.org/) -->

<svg
   width="200"
   height="200"
   viewBox="0 0 52.916668 52.916666"
   version="1.1"
   id="svg8"
   inkscape:version="1.3.2 (091e20e, 2023-11-25, custom)"
   sodipodi:docname="private.svg"
   xml:space="preserve"
   xmlns:inkscape="http://www.inkscape.org/namespaces/inkscape"
   xmlns:sodipodi="http://sodipodi.sourceforge.net/DTD/sodipodi-0.dtd"
   xmlns="http://www.w3.org/2000/svg"
   xmlns:svg="http://www.w3.org/2000/svg"
   xmlns:rdf="http://www.w3.org/1999/02/22-rdf-syntax-ns#"
   xmlns:cc="http://creativecommons.org/ns#"
   xmlns:dc="http://purl.org/dc/elements/1.1/"><defs
     id="defs2"><inkscape:path-effect
       effect="envelope"
       id="path-effect4658"
       is_visible="true"
       yy="true"
       xx="true"
       bendpath1="m -199.08406,108.42369 h 7.0057"
       bendpath2="m -192.07836,108.42369 v 6.75242"
       bendpath3="m -199.08406,115.17611 h 7.0057"
       bendpath4="m -199.08406,108.42369 v 6.75242" /><inkscape:path-effect
       effect="bend_path"
       id="path-effect4656"
       is_visible="true"
       bendpath="m -192.00142,114.60623 c 2.12577,-0.53066 4.48261,0.85111 7.0057,0"
       prop_scale="1"
       scale_y_rel="false"
       vertical="false"
       bendpath-nodetypes="cc" /><inkscape:path-effect
       effect="bounding_box"
       id="path-effect4654"
       is_visible="true"
       linkedpath=""
       visualbounds="false" /></defs><sodipodi:namedview
     id="base"
     pagecolor="#ffffff"
     bordercolor="#666666"
     borderopacity="1.0"
     inkscape:pageopacity="0.0"
     inkscape:pageshadow="2"
     inkscape:zoom="1.8648858"
     inkscape:cx="65.419555"
     inkscape:cy="74.267282"
     inkscape:document-units="mm"
     inkscape:current-layer="layer1"
     showgrid="false"
     fit-margin-top="0"
     fit-margin-left="0"
     fit-margin-right="0"
     fit-margin-bottom="0"
     inkscape:window-width="1366"
     inkscape:window-height="705"
     inkscape:window-x="-8"
     inkscape:window-y="-8"
     inkscape:window-maximized="1"
     showguides="false"
     inkscape:object-nodes="true"
     units="px"
     inkscape:snap-page="true"
     inkscape:showpageshadow="2"
     inkscape:pagecheckerboard="0"
     inkscape:deskcolor="#d1d1d1" /><metadata
     id="metadata5"><rdf:RDF><cc:Work
         rdf:about=""><dc:format>image/svg+xml</dc:format><dc:type
           rdf:resource="http://purl.org/dc/dcmitype/StillImage" /></cc:Work></rdf:RDF></metadata><g
     inkscape:label="Layer 1"
     inkscape:groupmode="layer"
     id="layer1"
     transform="translate(249.80447,-91.409467)"><g
       style="stroke-width:0.5"
       id="g5334"
       transform="matrix(2,0,0,2,-249.80447,91.409467)"><rect
         ry="1.984375"
         rx="1.984375"
         style="opacity:1;fill:#212121;fill-opacity:1;fill-rule:nonzero;stroke:none;stroke-width:0.25;stroke-linecap:butt;stroke-linejoin:round;stroke-miterlimit:4;stroke-dasharray:none;stroke-dashoffset:0;stroke-opacity:0.90944878;paint-order:normal"
         id="rect5322"
         width="26.458334"
         height="26.458334"
         x="0"
         y="-1.110223e-16" /><rect
         ry="1.3229166"
         rx="1.3229166"
         y="1.322917"
         x="1.322917"
         height="23.8125"
         width="23.8125"
         id="rect5324"
         style="opacity:1;fill:#faa20a;fill-opacity:1;fill-rule:nonzero;stroke:none;stroke-width:0.25;stroke-linecap:butt;stroke-linejoin:round;stroke-miterlimit:4;stroke-dasharray:none;stroke-dashoffset:0;stroke-opacity:0.90944878;paint-order:normal"
         inkscape:label="inside" /><path
         inkscape:connector-curvature="0"
         id="path5326"
         d="m 0.72760467,18.520836 v 4.167188 c 0,1.539081 1.23904383,2.778124 2.77812503,2.778124 H 22.952604 c 1.539081,0 2.778125,-1.239043 2.778125,-2.778124 v -4.167188 z"
         style="opacity:1;fill:#222222;fill-opacity:1;fill-rule:nonzero;stroke:none;stroke-width:0.24999999;stroke-linecap:butt;stroke-linejoin:round;stroke-miterlimit:4;stroke-dasharray:none;stroke-dashoffset:0;stroke-opacity:0.90944878;paint-order:normal" /></g><text
       xml:space="preserve"
       style="font-style:normal;font-variant:normal;font-weight:500;font-stretch:normal;font-size:7.69804px;font-family:Montserrat;-inkscape-font-specification:'Montserrat Medium';fill:#faa20a;fill-opacity:1;stroke-width:0.240563"
       x="-239.7184"
       y="138.54968"
       id="text1"><tspan
         sodipodi:role="line"
         id="tspan1"
         style="font-style:normal;font-variant:normal;font-weight:600;font-stretch:normal;font-size:7.69804px;font-family:Montserrat;-inkscape-font-specification:'Montserrat Semi-Bold';fill:#f9f9f9;stroke-width:0.240563"
         x="-239.7184"
         y="138.54968">PRIVATE</tspan></text><path
       style="fill:#212121;fill-opacity:1;stroke-width:0.700139"
       d="m -241.10258,130.41129 c -0.34947,-0.25549 -0.3622,-0.68434 -0.45222,-15.23641 l -0.0926,-14.97352 -1.52242,-0.0926 c -1.92367,-0.117027 -2.13697,-0.302067 -2.24156,-1.944627 -0.13766,-2.1618 0.36401,-2.68649 2.56861,-2.68649 h 1.28799 v -0.97887 c 0,-0.93613 0.0427,-1.02104 0.97837,-1.94507 0.5381,-0.53142 1.10893,-0.96621 1.26851,-0.96621 0.15959,0 0.76133,0.49397 1.3372,1.09772 0.95999,1.00644 1.04706,1.16818 1.04706,1.94507 v 0.84736 h 17.39035 c 14.54412,0 17.42502,0.0418 17.60212,0.25515 0.16492,0.19871 -0.004,0.70071 -0.76461,2.26925 l -0.97637,2.014097 -4.21433,0.0498 -4.21432,0.0498 v 0.64488 0.64488 h -1.20409 -1.2041 v -0.64835 -0.64837 h -7.22456 -7.22456 v 0.64837 0.64835 h -1.20409 -1.20409 v -0.64835 -0.64837 h -2.77868 -2.77867 v 14.5141 c 0,14.98249 -0.0235,15.48216 -0.74829,15.87002 -0.5307,0.28402 -3.01126,0.22504 -3.43063,-0.0816 z m 8.31944,-4.57061 c -0.74204,-0.21497 -1.6814,-1.27722 -1.82425,-2.06292 -0.0606,-0.3333 -0.0856,-4.8305 -0.0555,-9.99378 0.0533,-9.1487 0.0645,-9.40079 0.43666,-9.89917 0.21007,-0.28126 0.61216,-0.68326 0.89354,-0.89333 0.50509,-0.37708 0.67343,-0.38193 13.23358,-0.38193 h 12.72199 l 0.60484,0.4314 c 1.19004,0.84881 1.15505,0.50703 1.15429,11.27615 -6.7e-4,9.48154 -0.0121,9.79963 -0.37432,10.3937 -0.21572,0.35382 -0.70473,0.76312 -1.15709,0.96847 -0.74799,0.33954 -1.33283,0.35507 -12.91702,0.34301 -6.71619,-0.007 -12.39395,-0.0881 -12.71678,-0.1816 z m 25.41449,-1.54903 0.4547,-0.4547 v -9.62772 -9.62772 l -0.4881,-0.38394 c -0.48248,-0.37951 -0.62735,-0.38393 -12.58795,-0.38393 -8.4732,0 -12.23516,0.0616 -12.55126,0.20567 -0.24827,0.11312 -0.54395,0.4088 -0.65708,0.65707 -0.14197,0.31161 -0.20567,3.32156 -0.20567,9.71919 v 9.26779 l 0.54149,0.54149 0.54149,0.54149 h 12.24884 12.24885 z m -20.35993,-3.63636 c -0.53466,-1.2178 -1.0443,-1.25535 -1.0443,-0.077 v 0.83361 h -0.8336 -0.83361 v -2.8713 -2.87131 h 1.67641 c 1.74257,0 2.61595,0.25894 2.83965,0.84191 0.2585,0.67366 0.1073,1.54709 -0.365,2.10839 l -0.48007,0.57053 0.67804,0.94379 c 0.37293,0.51909 0.64463,0.97721 0.60378,1.01805 -0.0408,0.0408 -0.47275,0.14871 -0.9598,0.2397 l -0.88555,0.16544 z m -0.15513,-2.42958 c 0.49766,-0.49766 0.13333,-1.44492 -0.55573,-1.44492 -0.27169,0 -0.33344,0.15438 -0.33344,0.83361 0,0.67923 0.0617,0.8336 0.33344,0.8336 0.18339,0 0.43348,-0.10003 0.55573,-0.22229 z m 3.18622,0.31492 v -2.87131 h 2.15014 c 1.88454,0 2.13625,0.0362 2.0377,0.29303 -0.0618,0.16115 -0.11245,0.45292 -0.11245,0.64835 0,0.31385 -0.1406,0.35534 -1.20409,0.35534 -1.16087,0 -1.20409,0.0166 -1.20409,0.46312 0,0.43572 0.058,0.4631 0.98165,0.4631 h 0.98165 l -0.0757,0.64837 c -0.075,0.64228 -0.0842,0.64836 -0.98165,0.64836 -0.84286,0 -0.90596,0.0323 -0.90596,0.46311 0,0.44649 0.0432,0.46311 1.20409,0.46311 h 1.20409 v 0.64836 0.64836 h -2.03769 -2.0377 z m 5.00162,-0.01 v -2.88098 l 0.96353,0.056 0.96354,0.056 0.76177,1.43199 c 0.41896,0.7876 0.82756,1.49616 0.90799,1.57458 0.0804,0.0784 0.11682,-0.58682 0.0808,-1.47833 l -0.0654,-1.62092 0.78729,3e-5 0.78729,2e-5 v 2.8713 2.8713 l -0.97253,-0.002 -0.97254,-0.002 -0.83361,-1.60348 -0.8336,-1.60349 -0.0535,1.60568 -0.0535,1.60568 h -0.73376 -0.73377 z m 7.40981,0.65804 v -2.22295 h -0.76259 c -0.70043,0 -0.75348,-0.0339 -0.65089,-0.41679 0.0614,-0.22925 0.11284,-0.52101 0.11423,-0.64837 0.002,-0.17202 0.56453,-0.23156 2.18827,-0.23156 h 2.18575 l -0.0757,0.64837 c -0.0699,0.59861 -0.12389,0.64835 -0.70379,0.64835 h -0.62809 v 2.22295 2.22294 h -0.83361 -0.83359 z m -9.6154,-6.34681 c -1.22561,-0.44556 -1.8268,-1.90291 -1.48537,-3.60076 0.37176,-1.84874 2.16442,-2.72538 3.95421,-1.93367 1.0242,0.45305 1.40411,1.1728 1.40367,2.65934 -5.2e-4,1.75155 -0.85914,2.78286 -2.50147,3.00458 -0.40702,0.055 -1.02399,-0.004 -1.37104,-0.12949 z m 1.79805,-1.2853 c 0.12799,-0.12798 0.22229,-0.74098 0.22229,-1.44491 0,-1.35622 -0.18053,-1.66721 -0.96786,-1.66721 -0.67639,0 -0.9579,0.67422 -0.81214,1.94508 0.13864,1.20881 0.92603,1.79873 1.55771,1.16704 z m 6.08473,1.11675 c -0.15303,-0.23724 -0.38101,-0.66058 -0.50664,-0.94076 -0.12927,-0.28833 -0.37629,-0.50943 -0.56916,-0.50943 -0.28036,0 -0.34075,0.14775 -0.34075,0.83361 v 0.8336 h -0.8336 -0.83361 v -2.8713 -2.8713 h 1.84212 c 1.67609,0 1.88859,0.04 2.35767,0.44345 0.67347,0.5793 0.71274,1.67837 0.09,2.52062 l -0.42551,0.57553 0.59873,0.93304 c 0.61982,0.9659 0.56565,1.25979 -0.23357,1.26712 -0.16997,0.001 -0.43468,0.051 -0.58826,0.10999 -0.16996,0.0652 -0.3881,-0.0616 -0.55746,-0.32417 z m -0.30134,-3.12439 c 0.25922,-0.48436 0.0779,-1.05358 -0.38205,-1.19958 -0.54519,-0.17303 -0.73316,0.0441 -0.73316,0.84702 0,0.65244 0.0485,0.73005 0.45659,0.73005 0.26983,0 0.53923,-0.15441 0.65862,-0.37749 z m -13.34139,0.47011 v -2.8713 h 1.94507 1.94508 v 0.64836 0.64835 h -1.11148 -1.11147 v 0.55574 c 0,0.54494 0.0184,0.55574 0.94605,0.55574 0.78657,0 0.92709,0.0494 0.8336,0.29302 -0.0618,0.16116 -0.11244,0.45292 -0.11244,0.64835 0,0.29765 -0.13534,0.35535 -0.8336,0.35535 h -0.83361 v 1.01885 1.01884 h -0.8336 -0.8336 z"
       id="path1" /></g></svg>
