<?xml version="1.0" encoding="UTF-8" standalone="no"?>
<!-- Created with Inkscape (http://www.inkscape.org/) -->

<svg
   width="200"
   height="200"
   viewBox="0 0 52.916668 52.916666"
   version="1.1"
   id="svg8"
   inkscape:version="1.3.2 (091e20e, 2023-11-25, custom)"
   sodipodi:docname="scientific.svg"
   xml:space="preserve"
   xmlns:inkscape="http://www.inkscape.org/namespaces/inkscape"
   xmlns:sodipodi="http://sodipodi.sourceforge.net/DTD/sodipodi-0.dtd"
   xmlns="http://www.w3.org/2000/svg"
   xmlns:svg="http://www.w3.org/2000/svg"
   xmlns:rdf="http://www.w3.org/1999/02/22-rdf-syntax-ns#"
   xmlns:cc="http://creativecommons.org/ns#"
   xmlns:dc="http://purl.org/dc/elements/1.1/"><defs
     id="defs2"><inkscape:path-effect
       effect="envelope"
       id="path-effect4658"
       is_visible="true"
       yy="true"
       xx="true"
       bendpath1="m -199.08406,108.42369 h 7.0057"
       bendpath2="m -192.07836,108.42369 v 6.75242"
       bendpath3="m -199.08406,115.17611 h 7.0057"
       bendpath4="m -199.08406,108.42369 v 6.75242" /><inkscape:path-effect
       effect="bend_path"
       id="path-effect4656"
       is_visible="true"
       bendpath="m -192.00142,114.60623 c 2.12577,-0.53066 4.48261,0.85111 7.0057,0"
       prop_scale="1"
       scale_y_rel="false"
       vertical="false"
       bendpath-nodetypes="cc" /><inkscape:path-effect
       effect="bounding_box"
       id="path-effect4654"
       is_visible="true"
       linkedpath=""
       visualbounds="false" /></defs><sodipodi:namedview
     id="base"
     pagecolor="#ffffff"
     bordercolor="#666666"
     borderopacity="1.0"
     inkscape:pageopacity="0.0"
     inkscape:pageshadow="2"
     inkscape:zoom="1.235309"
     inkscape:cx="33.99959"
     inkscape:cy="107.26061"
     inkscape:document-units="mm"
     inkscape:current-layer="g5334"
     showgrid="false"
     fit-margin-top="0"
     fit-margin-left="0"
     fit-margin-right="0"
     fit-margin-bottom="0"
     inkscape:window-width="1366"
     inkscape:window-height="705"
     inkscape:window-x="-8"
     inkscape:window-y="-8"
     inkscape:window-maximized="1"
     showguides="false"
     inkscape:object-nodes="true"
     units="px"
     inkscape:snap-page="true"
     inkscape:showpageshadow="2"
     inkscape:pagecheckerboard="0"
     inkscape:deskcolor="#d1d1d1" /><metadata
     id="metadata5"><rdf:RDF><cc:Work
         rdf:about=""><dc:format>image/svg+xml</dc:format><dc:type
           rdf:resource="http://purl.org/dc/dcmitype/StillImage" /></cc:Work></rdf:RDF></metadata><g
     inkscape:label="Layer 1"
     inkscape:groupmode="layer"
     id="layer1"
     transform="translate(249.80447,-91.409467)"><g
       style="stroke-width:0.5"
       id="g5334"
       transform="matrix(2,0,0,2,-249.80447,91.409467)"><rect
         ry="1.984375"
         rx="1.984375"
         style="opacity:1;fill:#212121;fill-opacity:1;fill-rule:nonzero;stroke:none;stroke-width:0.25;stroke-linecap:butt;stroke-linejoin:round;stroke-miterlimit:4;stroke-dasharray:none;stroke-dashoffset:0;stroke-opacity:0.90944878;paint-order:normal"
         id="rect5322"
         width="26.458334"
         height="26.458334"
         x="0"
         y="-1.110223e-16" /><rect
         ry="1.3229166"
         rx="1.3229166"
         y="1.322917"
         x="1.322917"
         height="23.8125"
         width="23.8125"
         id="rect5324"
         style="opacity:1;fill:#43ad31;fill-opacity:1;fill-rule:nonzero;stroke:none;stroke-width:0.25;stroke-linecap:butt;stroke-linejoin:round;stroke-miterlimit:4;stroke-dasharray:none;stroke-dashoffset:0;stroke-opacity:0.90944878;paint-order:normal"
         inkscape:label="inside" /><path
         inkscape:connector-curvature="0"
         id="path5326"
         d="m 0.72760467,18.520836 v 4.167188 c 0,1.539081 1.23904383,2.778124 2.77812503,2.778124 H 22.952604 c 1.539081,0 2.778125,-1.239043 2.778125,-2.778124 v -4.167188 z"
         style="opacity:1;fill:#222222;fill-opacity:1;fill-rule:nonzero;stroke:none;stroke-width:0.24999999;stroke-linecap:butt;stroke-linejoin:round;stroke-miterlimit:4;stroke-dasharray:none;stroke-dashoffset:0;stroke-opacity:0.90944878;paint-order:normal" /><path
         style="fill:#212121;stroke-width:0.0993391;fill-opacity:1"
         d="m 16.350528,17.101435 c 0.149954,-0.07036 6.329867,-6.258704 6.385985,-6.394693 0.05366,-0.130026 0.05005,-0.273337 -0.01012,-0.401667 -0.03409,-0.07272 -1.01658,-1.0709588 -3.186294,-3.2373898 -3.433621,-3.428426 -3.202922,-3.217973 -3.482643,-3.177007 -0.123729,0.01812 -0.145448,0.03651 -0.741477,0.627609 -0.391382,0.388149 -0.631804,0.647062 -0.66308,0.714076 -0.06001,0.128572 -0.06311,0.246434 -0.0099,0.375384 0.02839,0.06879 0.732185,0.790196 2.377459,2.436949 1.285421,1.286576 2.347985,2.3687978 2.361253,2.4049378 0.01456,0.03966 0.01462,0.09176 1.65e-4,0.131418 -0.01318,0.03614 -1.075741,1.118362 -2.361253,2.404938 -1.645517,1.64688 -2.349231,2.368152 -2.377625,2.436949 -0.05327,0.12908 -0.05011,0.246926 0.01009,0.375384 0.06922,0.147703 1.219485,1.284385 1.339954,1.324126 0.127529,0.04207 0.236715,0.03565 0.357476,-0.02101 z m -5.147629,0.01848 c 0.0977,-0.03145 6.363276,-6.283541 6.414621,-6.400817 0.04184,-0.09556 0.04091,-0.345714 -0.0016,-0.422266 -0.01856,-0.03345 -1.452233,-1.4795778 -3.18594,-3.2136208 -2.506481,-2.506967 -3.171039,-3.158065 -3.244187,-3.178478 -0.135384,-0.03778 -0.236738,-0.03086 -0.354827,0.02424 -0.127874,0.05966 -1.2580465,1.189105 -1.2993725,1.29853 -0.04121,0.109126 -0.03397,0.323976 0.01416,0.42013 0.02316,0.04626 1.0994665,1.142902 2.3917965,2.436974 2.057328,2.0601028 2.349689,2.3625488 2.349689,2.4307358 0,0.06819 -0.292361,0.370632 -2.349689,2.430735 -1.29233,1.294072 -2.3686375,2.390711 -2.3917965,2.436975 -0.04813,0.09615 -0.05538,0.311004 -0.01416,0.420129 0.04133,0.109425 1.1714985,1.238866 1.2993725,1.298531 0.114618,0.05348 0.242798,0.05975 0.371901,0.0182 z m -5.0766435,-0.01839 c 0.07277,-0.03409 1.069341,-1.014963 3.23729,-3.186295 3.2862425,-3.291372 3.1887265,-3.187399 3.1887265,-3.399878 0,-0.21248 0.09752,-0.108506 -3.1887265,-3.3998788 -2.167949,-2.171332 -3.16452,-3.152205 -3.23729,-3.186294 -0.136245,-0.06383 -0.285219,-0.06335 -0.418808,0.0014 -0.146052,0.07072 -1.23351,1.163423 -1.28823,1.294437 -0.05178,0.123981 -0.05193,0.258172 -4.37e-4,0.382798 0.02842,0.06877 0.73698,0.794702 2.391797,2.450434 2.328524,2.3297968 2.35142,2.3537228 2.35142,2.4571528 0,0.10343 -0.0229,0.127356 -2.351414,2.457162 -1.654816,1.655732 -2.363377,2.381664 -2.391796,2.450434 -0.05472,0.132418 -0.05077,0.271635 0.01136,0.39994 0.07073,0.146051 1.163423,1.233509 1.294437,1.288229 0.129594,0.05413 0.272959,0.0507 0.401667,-0.0096 z"
         id="path2" /></g><text
       xml:space="preserve"
       style="font-style:normal;font-variant:normal;font-weight:500;font-stretch:normal;font-size:7.69804px;font-family:Montserrat;-inkscape-font-specification:'Montserrat Medium';fill:#faa20a;fill-opacity:1;stroke-width:0.240563"
       x="-244.71034"
       y="137.96304"
       id="text1"><tspan
         sodipodi:role="line"
         id="tspan1"
         style="font-style:normal;font-variant:normal;font-weight:600;font-stretch:normal;font-size:7.69804px;font-family:Montserrat;-inkscape-font-specification:'Montserrat Semi-Bold';fill:#f9f9f9;stroke-width:0.240563"
         x="-244.71034"
         y="137.96304">SCIENTIFIC</tspan></text></g></svg>
