<?xml version="1.0" encoding="UTF-8" standalone="no"?>
<!-- Created with Inkscape (http://www.inkscape.org/) -->

<svg
   width="200"
   height="200"
   viewBox="0 0 52.916668 52.916666"
   version="1.1"
   id="svg8"
   inkscape:version="1.3.2 (091e20e, 2023-11-25, custom)"
   sodipodi:docname="world.svg"
   xml:space="preserve"
   xmlns:inkscape="http://www.inkscape.org/namespaces/inkscape"
   xmlns:sodipodi="http://sodipodi.sourceforge.net/DTD/sodipodi-0.dtd"
   xmlns="http://www.w3.org/2000/svg"
   xmlns:svg="http://www.w3.org/2000/svg"
   xmlns:rdf="http://www.w3.org/1999/02/22-rdf-syntax-ns#"
   xmlns:cc="http://creativecommons.org/ns#"
   xmlns:dc="http://purl.org/dc/elements/1.1/"><defs
     id="defs2"><inkscape:path-effect
       effect="envelope"
       id="path-effect4658"
       is_visible="true"
       yy="true"
       xx="true"
       bendpath1="m -199.08406,108.42369 h 7.0057"
       bendpath2="m -192.07836,108.42369 v 6.75242"
       bendpath3="m -199.08406,115.17611 h 7.0057"
       bendpath4="m -199.08406,108.42369 v 6.75242" /><inkscape:path-effect
       effect="bend_path"
       id="path-effect4656"
       is_visible="true"
       bendpath="m -192.00142,114.60623 c 2.12577,-0.53066 4.48261,0.85111 7.0057,0"
       prop_scale="1"
       scale_y_rel="false"
       vertical="false"
       bendpath-nodetypes="cc" /><inkscape:path-effect
       effect="bounding_box"
       id="path-effect4654"
       is_visible="true"
       linkedpath=""
       visualbounds="false" /></defs><sodipodi:namedview
     id="base"
     pagecolor="#ffffff"
     bordercolor="#666666"
     borderopacity="1.0"
     inkscape:pageopacity="0.0"
     inkscape:pageshadow="2"
     inkscape:zoom="1.235309"
     inkscape:cx="50.999385"
     inkscape:cy="115.35575"
     inkscape:document-units="mm"
     inkscape:current-layer="layer1"
     showgrid="false"
     fit-margin-top="0"
     fit-margin-left="0"
     fit-margin-right="0"
     fit-margin-bottom="0"
     inkscape:window-width="1366"
     inkscape:window-height="705"
     inkscape:window-x="-8"
     inkscape:window-y="-8"
     inkscape:window-maximized="1"
     showguides="false"
     inkscape:object-nodes="true"
     units="px"
     inkscape:snap-page="true"
     inkscape:showpageshadow="2"
     inkscape:pagecheckerboard="0"
     inkscape:deskcolor="#d1d1d1" /><metadata
     id="metadata5"><rdf:RDF><cc:Work
         rdf:about=""><dc:format>image/svg+xml</dc:format><dc:type
           rdf:resource="http://purl.org/dc/dcmitype/StillImage" /></cc:Work></rdf:RDF></metadata><g
     inkscape:label="Layer 1"
     inkscape:groupmode="layer"
     id="layer1"
     transform="translate(249.80447,-91.409467)"><g
       style="stroke-width:0.5"
       id="g5334"
       transform="matrix(2,0,0,2,-249.80447,91.409467)"><rect
         ry="1.984375"
         rx="1.984375"
         style="opacity:1;fill:#212121;fill-opacity:1;fill-rule:nonzero;stroke:none;stroke-width:0.25;stroke-linecap:butt;stroke-linejoin:round;stroke-miterlimit:4;stroke-dasharray:none;stroke-dashoffset:0;stroke-opacity:0.90944878;paint-order:normal"
         id="rect5322"
         width="26.458334"
         height="26.458334"
         x="0"
         y="-1.110223e-16" /><rect
         ry="1.3229166"
         rx="1.3229166"
         y="1.322917"
         x="1.322917"
         height="23.8125"
         width="23.8125"
         id="rect5324"
         style="opacity:1;fill:#365fe3;fill-opacity:1;fill-rule:nonzero;stroke:none;stroke-width:0.25;stroke-linecap:butt;stroke-linejoin:round;stroke-miterlimit:4;stroke-dasharray:none;stroke-dashoffset:0;stroke-opacity:0.90944878;paint-order:normal"
         inkscape:label="inside" /><path
         inkscape:connector-curvature="0"
         id="path5326"
         d="m 0.72760467,18.520836 v 4.167188 c 0,1.539081 1.23904383,2.778124 2.77812503,2.778124 H 22.952604 c 1.539081,0 2.778125,-1.239043 2.778125,-2.778124 v -4.167188 z"
         style="opacity:1;fill:#222222;fill-opacity:1;fill-rule:nonzero;stroke:none;stroke-width:0.24999999;stroke-linecap:butt;stroke-linejoin:round;stroke-miterlimit:4;stroke-dasharray:none;stroke-dashoffset:0;stroke-opacity:0.90944878;paint-order:normal" /></g><text
       xml:space="preserve"
       style="font-style:normal;font-variant:normal;font-weight:500;font-stretch:normal;font-size:7.69804px;font-family:Montserrat;-inkscape-font-specification:'Montserrat Medium';fill:#faa20a;fill-opacity:1;stroke-width:0.240563"
       x="-238.34756"
       y="138.41739"
       id="text1"><tspan
         sodipodi:role="line"
         id="tspan1"
         style="font-style:normal;font-variant:normal;font-weight:600;font-stretch:normal;font-size:7.69804px;font-family:Montserrat;-inkscape-font-specification:'Montserrat Semi-Bold';fill:#f9f9f9;stroke-width:0.240563"
         x="-238.34756"
         y="138.41739">WORLD</tspan></text><path
       style="fill:#212121;stroke-width:0.0592643;fill-opacity:1"
       d="m -224.35292,127.54594 c -2.21477,-0.15138 -4.27157,-0.71004 -6.19558,-1.68279 -1.54475,-0.781 -2.88913,-1.75529 -4.1234,-2.98825 -1.54266,-1.54102 -2.72459,-3.32535 -3.54244,-5.34793 -0.65269,-1.61413 -1.02711,-3.29538 -1.13669,-5.10395 -0.0203,-0.33434 -0.0202,-1.45386 4e-5,-1.78756 0.10927,-1.79872 0.4785,-3.4658 1.12351,-5.0726 1.91685,-4.77516 6.01848,-8.35766 10.99502,-9.603394 1.28616,-0.321957 2.5243,-0.471316 3.90571,-0.471161 0.64169,6.4e-5 0.92638,0.01125 1.42781,0.05597 3.26492,0.291257 6.32589,1.555811 8.84371,3.653521 0.54279,0.452221 1.20295,1.086114 1.64916,1.583534 1.44726,1.61339 2.53874,3.45743 3.24244,5.47811 0.47835,1.37359 0.75493,2.75694 0.85536,4.27829 0.0272,0.41197 0.0315,1.49076 0.007,1.88529 -0.13681,2.2519 -0.69061,4.3337 -1.67619,6.30088 -1.53995,3.07368 -4.0806,5.61434 -7.15428,7.15428 -1.96718,0.98558 -4.04898,1.53939 -6.30089,1.67618 -0.35602,0.0216 -1.55828,0.0164 -1.92084,-0.008 z m 0.0549,-5.03066 v -2.84403 l -0.049,-0.01 c -0.027,-0.005 -0.14513,-0.01 -0.26264,-0.01 -0.36708,-2.4e-4 -1.47486,-0.0584 -2.09529,-0.11008 -0.38824,-0.0323 -1.17476,-0.11282 -1.5798,-0.1617 -0.23069,-0.0279 -0.41944,-0.0445 -0.41944,-0.0371 0,0.0708 0.40353,0.99219 0.67444,1.53996 0.65609,1.32654 1.40847,2.47376 2.32116,3.53922 0.29131,0.34006 0.79791,0.87417 0.83679,0.88223 0.018,0.004 0.11749,0.0143 0.22098,0.0234 0.10349,0.009 0.20933,0.019 0.2352,0.022 0.0259,0.003 0.0629,0.006 0.0823,0.007 l 0.0353,0.003 z m 2.32069,2.81091 0.21168,-0.0185 0.24048,-0.23684 c 1.1765,-1.15874 2.26128,-2.67687 3.07349,-4.30132 0.25962,-0.51927 0.64532,-1.38264 0.64532,-1.44453 0,-0.0115 -0.0138,-0.0158 -0.0353,-0.011 -0.0978,0.0219 -1.15325,0.1399 -1.75228,0.19578 -0.72155,0.0673 -2.00585,0.14141 -2.45593,0.14172 -0.11319,6e-5 -0.22786,0.005 -0.25481,0.01 l -0.049,0.01 v 2.84583 2.84584 l 0.0823,-0.009 c 0.0453,-0.005 0.17758,-0.0175 0.29401,-0.0276 z m -5.71952,-0.66075 c -0.008,-0.0108 -0.10321,-0.13975 -0.21016,-0.28662 -0.8498,-1.16694 -1.61226,-2.53949 -2.20788,-3.9745 -0.15861,-0.38216 -0.38763,-0.98697 -0.46541,-1.22912 -0.0507,-0.15798 -0.0447,-0.15322 -0.24075,-0.1905 -0.7344,-0.13966 -1.94322,-0.43166 -2.65782,-0.64199 -0.72814,-0.21433 -1.74847,-0.56634 -2.20655,-0.76127 -0.0603,-0.0256 -0.11594,-0.0466 -0.12371,-0.0466 -0.0188,0 0.20504,0.44553 0.38194,0.7605 0.8952,1.5939 2.09957,3.00291 3.52419,4.12296 1.21526,0.95544 2.50015,1.66306 3.99065,2.19771 0.2022,0.0725 0.24114,0.0815 0.2155,0.0495 z m 9.062,-0.0884 c 0.36442,-0.13367 0.6393,-0.24461 0.94637,-0.38196 2.72942,-1.22083 4.97477,-3.26552 6.44429,-5.86835 0.19587,-0.34695 0.42183,-0.79187 0.40215,-0.79187 -0.007,0 -0.0658,0.0217 -0.12945,0.0482 -0.45362,0.1886 -1.33364,0.49829 -1.91124,0.67262 -0.78434,0.23671 -1.6119,0.4486 -2.39125,0.61224 -0.29323,0.0615 -0.54767,0.1177 -0.56543,0.12474 -0.0198,0.008 -0.0401,0.0391 -0.0527,0.0811 -0.0112,0.0376 -0.0823,0.23415 -0.15808,0.43682 -0.69554,1.86139 -1.61215,3.52999 -2.78439,5.06868 -0.0395,0.0519 -0.0496,0.0744 -0.0331,0.0744 0.013,0 0.11777,-0.0345 0.23278,-0.0767 z m -5.66317,-9.34718 v -2.72839 h -2.90871 c -1.68673,0 -2.90871,0.005 -2.90871,0.0139 0,0.18097 0.0778,1.1651 0.12602,1.5933 0.1101,0.97844 0.33544,2.17327 0.58257,3.08902 0.0349,0.12936 0.0671,0.25166 0.0715,0.27177 0.005,0.0201 0.023,0.0426 0.0412,0.0499 0.03,0.0122 0.28027,0.0509 0.75451,0.11688 1.12057,0.15594 3.04628,0.30877 4.02593,0.31952 l 0.2156,0.003 z m 2.77541,2.70476 c 1.10026,-0.0478 2.27496,-0.15056 3.40264,-0.29741 0.32333,-0.0422 0.93272,-0.13724 0.94383,-0.14735 0.0295,-0.0268 0.22676,-0.79798 0.35723,-1.39632 0.22698,-1.04098 0.39025,-2.23445 0.44476,-3.25102 l 0.0183,-0.34105 h -2.9989 -2.9989 v 2.72839 2.72838 l 0.14504,-5e-5 c 0.0798,-2e-5 0.38848,-0.0106 0.68602,-0.0236 z m -9.64875,-0.78306 c -0.0177,-0.0464 -0.17165,-0.74761 -0.22366,-1.01938 -0.21476,-1.12217 -0.36762,-2.37513 -0.40656,-3.33278 -0.005,-0.12505 -0.0124,-0.24325 -0.0165,-0.26264 l -0.007,-0.0353 h -2.66661 -2.66661 l 0.01,0.10584 c 0.089,0.94344 0.17582,1.47751 0.37125,2.28289 l 0.0793,0.32674 0.0728,0.0465 c 0.10751,0.0685 0.75095,0.38377 1.08422,0.53127 1.16404,0.51521 2.47862,0.94156 4.01416,1.30189 0.36503,0.0857 0.36719,0.086 0.35532,0.0551 z m 16.47073,-0.15884 c 0.68412,-0.17119 1.47407,-0.39679 1.83358,-0.52362 0.0475,-0.0167 0.23089,-0.0808 0.40769,-0.14258 0.40995,-0.14301 0.9772,-0.36657 1.34851,-0.53145 0.33496,-0.14875 0.97781,-0.46395 1.08344,-0.53123 l 0.0721,-0.0459 0.0819,-0.33509 c 0.18245,-0.74573 0.29753,-1.45209 0.36947,-2.26769 l 0.01,-0.11368 h -2.58036 -2.58037 v 0.038 c 0,0.0208 -0.0107,0.21317 -0.0239,0.42729 -0.0839,1.37003 -0.28708,2.72576 -0.61025,4.07027 -0.0216,0.09 -0.0216,0.0902 0.0145,0.0902 0.0199,0 0.278,-0.0605 0.57349,-0.13444 z m -17.11773,-6.47089 c 0.004,-0.0194 0.0145,-0.18699 0.0239,-0.37241 0.0745,-1.47318 0.32297,-3.08523 0.70609,-4.58259 0.0421,-0.1642 0.0423,-0.16856 0.012,-0.16856 -0.0171,0 -0.16956,0.0322 -0.33871,0.0716 -1.86905,0.43514 -3.35924,0.94094 -4.68624,1.5906 -0.35269,0.17267 -0.41399,0.20781 -0.42853,0.24574 -0.0499,0.13019 -0.18444,0.60529 -0.25898,0.91452 -0.1799,0.74638 -0.28452,1.39723 -0.35851,2.23052 l -0.009,0.10585 h 2.6658 2.66579 z m 7.52034,-2.92831 v -2.96358 l -0.0902,1.1e-4 c -0.17597,2e-4 -1.20869,0.0475 -1.54844,0.0709 -0.85674,0.059 -1.65433,0.13353 -2.26581,0.21172 -0.45569,0.0583 -0.93293,0.12854 -0.95519,0.14064 -0.0474,0.0257 -0.3133,1.00544 -0.48526,1.78762 -0.21645,0.98462 -0.39429,2.28959 -0.44871,3.29287 -0.005,0.0905 -0.0129,0.22285 -0.0178,0.29401 l -0.009,0.12936 h 2.9101 2.91012 z m 7.92407,2.62254 c -0.0687,-1.26359 -0.30786,-2.80946 -0.61933,-4.00241 -0.14335,-0.54904 -0.31875,-1.14466 -0.3371,-1.14466 -0.005,0 -0.22844,-0.0316 -0.49711,-0.0704 -1.01516,-0.14625 -1.99652,-0.24366 -3.15414,-0.31306 -0.37928,-0.0228 -1.14648,-0.0556 -1.2979,-0.0556 h -0.0742 v 2.96359 2.96358 h 2.99912 2.99912 z m 6.87041,0.24304 c -0.0312,-0.32731 -0.0445,-0.45337 -0.0723,-0.67817 -0.0671,-0.54271 -0.1382,-0.93003 -0.28058,-1.52883 -0.0793,-0.33335 -0.21222,-0.80737 -0.2653,-0.94586 -0.0145,-0.038 -0.0773,-0.0737 -0.44421,-0.25304 -1.1874,-0.58029 -2.53165,-1.05485 -4.08088,-1.44066 -0.55203,-0.13747 -0.77566,-0.18854 -0.78496,-0.17924 -0.004,0.004 0.0354,0.17197 0.0868,0.37394 0.35762,1.40373 0.57652,2.80883 0.66668,4.27946 0.013,0.21129 0.0236,0.40357 0.0236,0.42729 l 6e-5,0.0432 h 2.5802 2.5802 z m -25.62176,-5.66409 c 1.24112,-0.46523 2.60883,-0.84653 4.10933,-1.14566 0.29262,-0.0584 0.53993,-0.11383 0.54957,-0.12331 0.01,-0.01 0.0654,-0.14426 0.1239,-0.29949 0.61059,-1.6199 1.49282,-3.26296 2.45848,-4.578673 0.1076,-0.146606 0.19333,-0.269052 0.1905,-0.272097 -0.0173,-0.01866 -0.84228,0.296744 -1.24496,0.475935 -1.57552,0.701109 -2.9708,1.659525 -4.1881,2.876835 -0.88979,0.88979 -1.65678,1.89551 -2.26051,2.96411 -0.15286,0.27055 -0.14697,0.25779 -0.11245,0.24364 0.0161,-0.006 0.1845,-0.0701 0.37424,-0.14129 z m 23.98123,0.11325 c -0.149,-0.28195 -0.46063,-0.79356 -0.68522,-1.12491 -1.46352,-2.15918 -3.46772,-3.846327 -5.83264,-4.909897 -0.37816,-0.170082 -1.14444,-0.468619 -1.20281,-0.468619 -0.0208,0 -0.0141,0.01637 0.0302,0.07453 0.6646,0.872352 1.17233,1.666326 1.72512,2.697656 0.31792,0.59313 0.78446,1.62649 1.00485,2.22565 0.0357,0.0969 0.069,0.16325 0.0841,0.16761 0.0138,0.004 0.19097,0.0399 0.39364,0.0798 1.41623,0.27917 2.9839,0.71837 4.13177,1.15753 0.18973,0.0726 0.35051,0.13287 0.35728,0.13395 0.006,9.1e-4 0.004,-0.0139 -0.006,-0.0333 z m -6.87501,-1.69347 c -0.021,-0.0675 -0.27829,-0.61758 -0.44057,-0.94192 -0.8062,-1.6114 -1.89421,-3.132349 -3.06539,-4.285204 l -0.24061,-0.236851 -0.21168,-0.01847 c -0.11643,-0.01015 -0.24873,-0.02259 -0.29401,-0.02762 l -0.0823,-0.0091 v 2.612295 2.61229 l 0.0353,0.007 c 0.0194,0.004 0.21874,0.0112 0.44298,0.016 0.54213,0.0118 1.44507,0.0653 2.1482,0.12718 0.37471,0.033 1.30369,0.13018 1.48179,0.15501 0.22824,0.0318 0.23943,0.0313 0.22634,-0.0107 z m -10.20963,-0.0113 c 1.04615,-0.12714 2.5514,-0.24059 3.45244,-0.26022 0.22422,-0.005 0.42356,-0.0121 0.44297,-0.016 l 0.0353,-0.007 v -2.61161 -2.611605 l -0.0823,0.0082 c -0.0453,0.0046 -0.16699,0.0161 -0.27048,0.02552 -0.1035,0.0093 -0.20293,0.02003 -0.22097,0.02369 -0.0401,0.0082 -0.55078,0.547761 -0.85286,0.901114 -0.71248,0.833439 -1.33131,1.726751 -1.90095,2.744071 -0.2644,0.47218 -0.7497,1.46884 -0.87616,1.79932 -0.0164,0.0428 -0.0393,0.0424 0.27307,0.005 z"
       id="path2" /></g></svg>
